<svg xmlns="http://www.w3.org/2000/svg" xmlns:xlink="http://www.w3.org/1999/xlink" width="240" zoomAndPan="magnify" viewBox="0 0 180 30.000001" height="40" preserveAspectRatio="xMidYMid meet" version="1.0"><defs><g/></defs><path fill="#f5eadc" d="M 22.554688 2.449219 L 22.554688 2.441406 L 22.550781 2.441406 C 22.550781 2.441406 22.550781 2.445312 22.554688 2.449219 Z M 26.734375 21.738281 C 26.847656 21.753906 26.976562 21.769531 27.117188 21.765625 C 27.070312 21.609375 26.945312 21.425781 26.773438 21.273438 C 26.585938 21.101562 26.359375 20.964844 26.15625 20.90625 C 25.949219 20.84375 25.8125 20.867188 25.734375 20.957031 C 25.714844 20.980469 25.699219 21.007812 25.6875 21.03125 C 25.902344 21.203125 26.113281 21.367188 26.316406 21.503906 C 26.460938 21.601562 26.605469 21.6875 26.734375 21.738281 Z M 27.605469 8.441406 C 27.617188 8.28125 27.542969 8.019531 27.4375 7.769531 C 27.335938 7.503906 27.183594 7.265625 27.070312 6.894531 C 27.023438 6.746094 26.980469 6.597656 26.933594 6.441406 C 26.902344 6.265625 26.871094 6.089844 26.839844 5.910156 C 26.796875 5.570312 26.765625 5.242188 26.71875 4.9375 L 26.699219 4.816406 L 26.699219 4.804688 L 26.683594 4.746094 L 26.644531 4.621094 C 26.632812 4.578125 26.617188 4.582031 26.605469 4.558594 C 26.597656 4.539062 26.589844 4.519531 26.578125 4.503906 L 26.523438 4.433594 C 26.492188 4.378906 26.4375 4.339844 26.394531 4.296875 C 26.191406 4.117188 25.917969 3.980469 25.605469 3.820312 C 25.304688 3.660156 25.007812 3.484375 24.738281 3.328125 C 24.1875 3.015625 23.644531 2.730469 23.136719 2.605469 C 22.644531 2.488281 22.566406 2.539062 22.113281 2.710938 C 22.007812 2.75 21.894531 2.824219 21.789062 2.875 C 21.367188 3.121094 21 3.429688 20.671875 3.722656 C 20.019531 4.3125 19.515625 4.855469 19.136719 5.191406 C 18.757812 5.535156 18.511719 5.691406 18.476562 5.652344 C 18.4375 5.609375 18.601562 5.382812 18.902344 4.980469 C 19.210938 4.578125 19.640625 3.988281 20.269531 3.316406 C 20.589844 2.976562 20.960938 2.621094 21.4375 2.304688 C 21.566406 2.230469 21.679688 2.152344 21.828125 2.085938 C 21.902344 2.050781 21.976562 2.015625 22.050781 1.984375 C 22.121094 1.957031 22.1875 1.9375 22.253906 1.910156 L 22.355469 1.878906 L 22.382812 1.871094 L 22.40625 1.867188 L 22.441406 1.859375 L 22.507812 1.847656 C 22.605469 1.824219 22.691406 1.824219 22.785156 1.820312 C 22.960938 1.816406 23.132812 1.84375 23.296875 1.875 C 23.960938 2.019531 24.542969 2.320312 25.125 2.632812 C 25.402344 2.785156 25.660156 2.933594 25.9375 3.078125 C 25.9375 3.007812 25.9375 2.933594 25.933594 2.859375 C 25.644531 2.300781 24.835938 2 24.300781 1.757812 C 23.753906 1.515625 23.191406 1.300781 22.65625 1.039062 C 21.367188 0.949219 20.304688 2.261719 19.421875 3.042969 C 18.558594 3.8125 17.578125 4.269531 16.621094 4.890625 C 15.234375 5.785156 15.082031 7.121094 14.273438 8.417969 C 13.597656 9.5 12.867188 10.628906 11.996094 11.5625 C 10.949219 12.679688 9.703125 13.6875 8.886719 15.003906 C 8.074219 16.3125 7.46875 17.714844 6.863281 19.128906 C 6.234375 20.625 5.648438 22.09375 5.171875 23.648438 C 4.855469 24.679688 4.640625 25.789062 3.960938 26.644531 C 3.957031 26.652344 3.953125 26.652344 3.949219 26.660156 C 3.890625 26.835938 3.90625 26.972656 4.101562 27.03125 C 4.632812 27.183594 5.167969 27.269531 5.710938 27.371094 C 7.277344 27.671875 8.78125 28.109375 10.378906 28.027344 C 10.464844 26.710938 10.929688 25.574219 11.425781 24.332031 C 11.824219 23.339844 12.136719 22.257812 12.625 21.285156 C 12.578125 21.300781 12.527344 21.3125 12.480469 21.328125 C 12.394531 21.34375 12.324219 21.398438 12.246094 21.429688 L 12.128906 21.480469 L 12.105469 21.492188 C 12.097656 21.496094 12.042969 21.535156 12.042969 21.535156 C 11.882812 21.65625 11.785156 21.746094 11.664062 21.871094 C 11.433594 22.113281 11.242188 22.375 11.078125 22.632812 C 10.75 23.152344 10.511719 23.640625 10.3125 24.035156 C 9.921875 24.839844 9.671875 25.277344 9.613281 25.246094 C 9.558594 25.21875 9.699219 24.75 9.988281 23.898438 C 10.140625 23.480469 10.335938 22.957031 10.644531 22.378906 C 10.800781 22.089844 10.988281 21.785156 11.238281 21.488281 C 11.359375 21.34375 11.527344 21.175781 11.664062 21.066406 L 11.71875 21.015625 L 11.730469 21.007812 C 11.730469 21.003906 11.773438 20.976562 11.773438 20.976562 L 11.777344 20.972656 L 11.8125 20.953125 L 11.957031 20.875 C 12.054688 20.828125 12.152344 20.761719 12.257812 20.726562 C 12.679688 20.558594 13.132812 20.507812 13.585938 20.472656 C 13.804688 20.460938 14.027344 20.449219 14.253906 20.4375 C 14.371094 20.433594 14.472656 20.421875 14.574219 20.414062 C 14.675781 20.40625 14.78125 20.398438 14.902344 20.375 L 15.074219 20.347656 L 15.148438 20.335938 C 15.148438 20.332031 15.160156 20.328125 15.160156 20.328125 L 15.183594 20.324219 L 15.222656 20.3125 C 15.335938 20.285156 15.453125 20.253906 15.566406 20.222656 C 15.796875 20.164062 16.03125 20.101562 16.269531 20.03125 C 16.746094 19.894531 17.238281 19.734375 17.765625 19.605469 C 17.902344 19.570312 18.035156 19.539062 18.167969 19.507812 C 18.300781 19.476562 18.445312 19.460938 18.585938 19.433594 C 18.726562 19.410156 18.867188 19.382812 19.011719 19.367188 C 19.160156 19.359375 19.304688 19.355469 19.453125 19.347656 C 19.746094 19.316406 20.058594 19.355469 20.367188 19.382812 C 20.695312 19.398438 20.949219 19.476562 21.234375 19.535156 L 21.445312 19.578125 L 21.554688 19.605469 L 21.679688 19.632812 C 21.8125 19.667969 21.945312 19.703125 22.085938 19.734375 C 22.367188 19.792969 22.65625 19.851562 22.945312 19.914062 C 23.53125 20.039062 24.152344 20.179688 24.773438 20.460938 L 24.980469 20.558594 L 25.082031 20.609375 L 25.132812 20.632812 L 25.160156 20.652344 L 25.226562 20.695312 C 25.300781 20.746094 25.375 20.792969 25.441406 20.84375 C 25.449219 20.824219 25.453125 20.808594 25.464844 20.789062 C 25.519531 20.671875 25.652344 20.558594 25.804688 20.511719 C 25.953125 20.464844 26.109375 20.472656 26.257812 20.5 C 26.554688 20.566406 26.835938 20.71875 27.078125 20.9375 C 27.195312 21.042969 27.292969 21.167969 27.371094 21.296875 C 27.371094 21.25 27.371094 21.199219 27.363281 21.144531 C 27.34375 20.941406 27.257812 20.714844 27.148438 20.5 C 26.921875 20.058594 26.605469 19.644531 26.273438 19.273438 C 25.9375 18.902344 25.574219 18.554688 25.203125 18.277344 C 25.160156 18.238281 25.113281 18.210938 25.066406 18.175781 C 25.015625 18.144531 24.996094 18.128906 24.941406 18.09375 C 24.855469 18.046875 24.730469 17.996094 24.628906 17.941406 C 24.414062 17.84375 24.203125 17.742188 23.996094 17.644531 C 23.15625 17.28125 22.300781 16.941406 21.597656 16.578125 C 21.210938 16.394531 20.863281 16.144531 20.589844 15.867188 C 20.316406 15.585938 20.109375 15.285156 19.945312 14.992188 C 19.695312 14.542969 19.542969 14.117188 19.421875 13.746094 C 19.421875 13.984375 19.425781 14.191406 19.441406 14.347656 C 19.457031 14.621094 19.46875 14.78125 19.414062 14.804688 C 19.363281 14.824219 19.246094 14.695312 19.132812 14.421875 C 19.007812 14.148438 18.917969 13.726562 18.867188 13.210938 C 18.84375 12.953125 18.832031 12.667969 18.824219 12.371094 C 18.824219 12.296875 18.824219 12.222656 18.820312 12.148438 C 18.820312 12.066406 18.820312 11.988281 18.820312 11.90625 C 18.824219 11.738281 18.824219 11.566406 18.847656 11.390625 C 18.859375 11.285156 18.875 11.183594 18.894531 11.078125 C 18.609375 11.625 18.429688 12.015625 18.34375 11.996094 C 18.21875 11.972656 18.335938 11.085938 18.886719 10.160156 C 19.078125 9.835938 19.296875 9.550781 19.511719 9.339844 C 19.535156 9.296875 19.558594 9.25 19.582031 9.207031 C 19.6875 9.027344 19.808594 8.855469 19.917969 8.691406 C 19.972656 8.613281 20.03125 8.539062 20.085938 8.46875 L 20.214844 8.304688 L 20.242188 8.265625 L 20.269531 8.238281 C 20.40625 8.101562 20.542969 7.960938 20.671875 7.828125 C 20.800781 7.691406 20.945312 7.597656 21.074219 7.480469 C 21.347656 7.257812 21.566406 7.089844 21.796875 6.914062 C 22.015625 6.710938 22.230469 6.53125 22.40625 6.363281 C 22.511719 6.265625 22.625 6.167969 22.796875 6.105469 C 22.816406 6.097656 22.835938 6.09375 22.859375 6.089844 C 22.757812 5.914062 22.699219 5.730469 22.691406 5.5625 C 22.679688 5.320312 22.753906 5.144531 22.839844 5.035156 C 22.917969 4.941406 22.992188 4.921875 23.042969 4.9375 C 23.097656 4.957031 23.117188 5.035156 23.136719 5.136719 C 23.164062 5.214844 23.191406 5.335938 23.253906 5.445312 C 23.367188 5.660156 23.652344 5.925781 24.0625 6.089844 C 24.476562 6.25 24.839844 6.242188 25.070312 6.140625 C 25.316406 6.042969 25.472656 5.851562 25.582031 5.898438 C 25.632812 5.914062 25.664062 5.984375 25.660156 6.109375 C 25.644531 6.230469 25.589844 6.410156 25.429688 6.589844 C 25.359375 6.667969 25.261719 6.742188 25.152344 6.800781 C 25.15625 6.828125 25.15625 6.855469 25.160156 6.886719 C 25.355469 7.164062 25.582031 7.476562 25.851562 7.769531 C 26.1875 8.132812 26.539062 8.386719 26.859375 8.542969 C 27.039062 8.601562 27.238281 8.644531 27.390625 8.632812 C 27.4375 8.628906 27.46875 8.621094 27.5 8.613281 C 27.511719 8.605469 27.523438 8.605469 27.53125 8.597656 C 27.535156 8.59375 27.539062 8.589844 27.542969 8.585938 C 27.5625 8.566406 27.589844 8.539062 27.605469 8.523438 C 27.597656 8.519531 27.589844 8.519531 27.589844 8.527344 C 27.59375 8.507812 27.605469 8.480469 27.605469 8.441406 Z M 30.277344 21.03125 C 30.261719 21.007812 30.246094 20.980469 30.230469 20.957031 C 30.152344 20.867188 30.011719 20.84375 29.804688 20.90625 C 29.605469 20.964844 29.378906 21.101562 29.1875 21.273438 C 29.015625 21.425781 28.890625 21.609375 28.847656 21.765625 C 28.988281 21.769531 29.117188 21.753906 29.226562 21.738281 C 29.359375 21.6875 29.503906 21.601562 29.644531 21.503906 C 29.851562 21.367188 30.058594 21.203125 30.277344 21.03125 Z M 36.5 12.847656 C 36.492188 12.699219 36.480469 12.550781 36.464844 12.390625 C 36.460938 12.316406 36.453125 12.242188 36.449219 12.164062 C 36.445312 12.089844 36.4375 12.015625 36.429688 11.9375 C 36.417969 11.792969 36.40625 11.640625 36.371094 11.488281 C 36.269531 10.878906 36.042969 10.238281 35.675781 9.617188 C 35.589844 9.460938 35.492188 9.320312 35.398438 9.175781 C 35.34375 9.097656 35.289062 9.027344 35.238281 8.949219 L 35.152344 8.84375 L 35.113281 8.785156 C 35.109375 8.78125 35.105469 8.773438 35.105469 8.769531 L 35.082031 8.75 C 34.96875 8.625 34.859375 8.5 34.75 8.386719 C 34.644531 8.265625 34.507812 8.15625 34.398438 8.046875 C 34.144531 7.8125 33.90625 7.589844 33.6875 7.382812 C 33.488281 7.160156 33.304688 6.960938 33.140625 6.761719 C 33.078125 6.675781 33.007812 6.605469 32.96875 6.582031 C 32.929688 6.554688 32.929688 6.542969 32.859375 6.5625 C 32.722656 6.605469 32.546875 6.71875 32.402344 6.769531 C 32.359375 6.78125 32.324219 6.792969 32.285156 6.800781 C 32.257812 6.816406 32.226562 6.832031 32.195312 6.84375 C 31.976562 6.929688 31.742188 6.976562 31.519531 6.976562 C 31.371094 7.386719 31.117188 7.875 30.703125 8.324219 C 30.449219 8.597656 30.152344 8.824219 29.851562 8.972656 C 29.632812 9.082031 29.414062 9.148438 29.214844 9.179688 C 29.019531 9.246094 28.804688 9.304688 28.546875 9.308594 C 28.378906 9.300781 28.1875 9.28125 27.980469 9.121094 C 27.773438 9.28125 27.585938 9.300781 27.417969 9.308594 C 27.15625 9.304688 26.945312 9.246094 26.75 9.179688 C 26.546875 9.148438 26.328125 9.082031 26.109375 8.972656 C 25.8125 8.824219 25.515625 8.597656 25.261719 8.324219 C 24.84375 7.875 24.589844 7.386719 24.441406 6.976562 C 24.21875 6.976562 23.988281 6.929688 23.765625 6.84375 C 23.738281 6.832031 23.707031 6.816406 23.675781 6.800781 C 23.640625 6.792969 23.601562 6.78125 23.5625 6.769531 C 23.417969 6.71875 23.242188 6.605469 23.105469 6.5625 C 23.035156 6.542969 23.035156 6.554688 22.996094 6.582031 C 22.957031 6.605469 22.886719 6.675781 22.824219 6.761719 C 22.65625 6.960938 22.476562 7.160156 22.273438 7.382812 C 22.054688 7.589844 21.816406 7.8125 21.566406 8.046875 C 21.453125 8.15625 21.316406 8.265625 21.210938 8.386719 C 21.105469 8.5 20.996094 8.625 20.882812 8.75 L 20.863281 8.765625 C 20.863281 8.765625 20.855469 8.78125 20.851562 8.785156 L 20.808594 8.84375 L 20.726562 8.949219 C 20.675781 9.027344 20.617188 9.097656 20.5625 9.175781 C 20.472656 9.320312 20.371094 9.460938 20.285156 9.617188 C 19.925781 10.238281 19.695312 10.878906 19.589844 11.488281 C 19.558594 11.640625 19.546875 11.792969 19.535156 11.9375 C 19.527344 12.015625 19.519531 12.089844 19.515625 12.164062 C 19.507812 12.242188 19.5 12.316406 19.496094 12.390625 C 19.484375 12.550781 19.472656 12.699219 19.464844 12.847656 C 19.523438 12.988281 19.589844 13.144531 19.660156 13.324219 C 19.835938 13.726562 20.042969 14.230469 20.378906 14.730469 C 20.542969 14.984375 20.742188 15.230469 20.988281 15.453125 C 21.234375 15.675781 21.519531 15.859375 21.863281 16 C 22.605469 16.332031 23.390625 16.605469 24.285156 16.957031 C 24.507812 17.046875 24.730469 17.148438 24.957031 17.246094 C 25.074219 17.300781 25.179688 17.339844 25.3125 17.40625 C 25.363281 17.433594 25.445312 17.484375 25.5 17.519531 C 25.558594 17.554688 25.613281 17.597656 25.671875 17.632812 C 26.109375 17.949219 26.503906 18.308594 26.886719 18.710938 C 27.261719 19.117188 27.621094 19.558594 27.910156 20.101562 C 27.933594 20.148438 27.960938 20.195312 27.980469 20.246094 C 28.003906 20.195312 28.027344 20.148438 28.050781 20.101562 C 28.339844 19.558594 28.703125 19.117188 29.078125 18.710938 C 29.460938 18.308594 29.855469 17.949219 30.292969 17.632812 C 30.347656 17.597656 30.402344 17.554688 30.464844 17.519531 C 30.515625 17.484375 30.601562 17.433594 30.652344 17.40625 C 30.78125 17.339844 30.886719 17.300781 31.003906 17.246094 C 31.234375 17.148438 31.457031 17.046875 31.675781 16.957031 C 32.570312 16.605469 33.359375 16.332031 34.097656 16 C 34.441406 15.859375 34.726562 15.675781 34.976562 15.453125 C 35.21875 15.230469 35.417969 14.984375 35.585938 14.730469 C 35.917969 14.230469 36.125 13.726562 36.300781 13.324219 C 36.375 13.144531 36.4375 12.988281 36.5 12.847656 Z M 50.492188 27.328125 C 50.628906 27.304688 52.136719 26.957031 52.140625 26.972656 C 52.074219 26.816406 51.996094 26.667969 51.914062 26.515625 C 51.304688 25.679688 51.082031 24.628906 50.789062 23.648438 C 50.324219 22.09375 49.730469 20.625 49.097656 19.128906 C 48.503906 17.734375 47.9375 16.261719 47.078125 15.003906 C 46.1875 13.703125 44.984375 12.742188 43.964844 11.5625 C 43.148438 10.609375 42.28125 9.535156 41.691406 8.417969 C 41.011719 7.136719 40.683594 5.679688 39.34375 4.890625 C 38.363281 4.3125 37.386719 3.816406 36.539062 3.042969 C 35.675781 2.25 34.582031 0.949219 33.308594 1.039062 C 32.714844 1.328125 32.097656 1.550781 31.503906 1.832031 C 31.003906 2.070312 30.296875 2.339844 30.027344 2.859375 C 30.023438 2.933594 30.023438 3.007812 30.027344 3.078125 C 30.304688 2.933594 30.5625 2.785156 30.839844 2.632812 C 31.417969 2.320312 32.003906 2.019531 32.664062 1.875 C 32.832031 1.84375 33.003906 1.816406 33.179688 1.820312 C 33.269531 1.824219 33.359375 1.824219 33.453125 1.847656 L 33.519531 1.859375 L 33.554688 1.867188 L 33.574219 1.871094 L 33.582031 1.871094 L 33.609375 1.878906 L 33.710938 1.910156 C 33.777344 1.9375 33.839844 1.957031 33.910156 1.984375 C 33.984375 2.015625 34.058594 2.050781 34.136719 2.085938 C 34.285156 2.152344 34.398438 2.230469 34.523438 2.304688 C 35.003906 2.621094 35.375 2.976562 35.691406 3.316406 C 36.324219 3.988281 36.753906 4.578125 37.0625 4.980469 C 37.359375 5.382812 37.527344 5.609375 37.488281 5.652344 C 37.449219 5.691406 37.207031 5.535156 36.824219 5.195312 C 36.445312 4.855469 35.945312 4.316406 35.292969 3.722656 C 34.964844 3.433594 34.59375 3.125 34.171875 2.878906 C 34.070312 2.824219 33.953125 2.753906 33.851562 2.71875 C 33.492188 2.570312 33.214844 2.511719 32.824219 2.601562 C 32.316406 2.730469 31.777344 3.011719 31.226562 3.328125 C 30.953125 3.480469 30.660156 3.660156 30.359375 3.820312 C 30.042969 3.976562 29.769531 4.117188 29.570312 4.296875 C 29.527344 4.339844 29.472656 4.378906 29.441406 4.433594 L 29.382812 4.503906 C 29.375 4.519531 29.367188 4.539062 29.359375 4.558594 C 29.347656 4.582031 29.328125 4.578125 29.320312 4.621094 L 29.28125 4.746094 L 29.261719 4.804688 L 29.261719 4.816406 L 29.246094 4.9375 C 29.195312 5.242188 29.167969 5.570312 29.125 5.910156 C 29.089844 6.089844 29.0625 6.265625 29.03125 6.441406 C 28.988281 6.597656 28.941406 6.746094 28.894531 6.894531 C 28.777344 7.265625 28.625 7.503906 28.527344 7.769531 C 28.421875 8.019531 28.34375 8.28125 28.359375 8.441406 C 28.359375 8.476562 28.367188 8.503906 28.371094 8.523438 C 28.371094 8.519531 28.367188 8.519531 28.359375 8.523438 C 28.371094 8.539062 28.398438 8.566406 28.421875 8.585938 C 28.425781 8.589844 28.425781 8.59375 28.429688 8.597656 C 28.4375 8.605469 28.453125 8.605469 28.464844 8.613281 C 28.492188 8.621094 28.527344 8.628906 28.570312 8.632812 C 28.726562 8.644531 28.921875 8.601562 29.105469 8.539062 C 29.425781 8.386719 29.777344 8.132812 30.109375 7.769531 C 30.382812 7.476562 30.609375 7.164062 30.800781 6.886719 C 30.808594 6.855469 30.804688 6.828125 30.808594 6.800781 C 30.703125 6.742188 30.605469 6.667969 30.535156 6.589844 C 30.375 6.410156 30.320312 6.230469 30.304688 6.109375 C 30.300781 5.984375 30.328125 5.914062 30.382812 5.898438 C 30.488281 5.851562 30.648438 6.042969 30.890625 6.140625 C 31.125 6.242188 31.488281 6.25 31.898438 6.089844 C 32.3125 5.925781 32.597656 5.660156 32.710938 5.445312 C 32.769531 5.335938 32.800781 5.214844 32.824219 5.136719 C 32.847656 5.035156 32.867188 4.957031 32.921875 4.9375 C 32.972656 4.921875 33.042969 4.941406 33.125 5.035156 C 33.210938 5.144531 33.28125 5.320312 33.269531 5.5625 C 33.265625 5.730469 33.203125 5.914062 33.105469 6.089844 C 33.125 6.09375 33.148438 6.097656 33.167969 6.105469 C 33.339844 6.167969 33.449219 6.265625 33.554688 6.363281 C 33.734375 6.53125 33.949219 6.710938 34.167969 6.914062 C 34.398438 7.089844 34.617188 7.257812 34.886719 7.480469 C 35.019531 7.597656 35.160156 7.691406 35.289062 7.828125 C 35.421875 7.960938 35.558594 8.101562 35.691406 8.238281 L 35.722656 8.265625 L 35.75 8.304688 L 35.792969 8.359375 L 35.875 8.46875 C 35.929688 8.539062 35.988281 8.613281 36.046875 8.691406 C 36.15625 8.855469 36.277344 9.027344 36.378906 9.207031 C 36.40625 9.25 36.429688 9.296875 36.453125 9.339844 C 36.667969 9.550781 36.886719 9.835938 37.078125 10.160156 C 37.625 11.085938 37.746094 11.972656 37.621094 11.996094 C 37.535156 12.015625 37.355469 11.625 37.070312 11.078125 C 37.089844 11.183594 37.105469 11.285156 37.117188 11.390625 C 37.140625 11.566406 37.140625 11.738281 37.140625 11.90625 C 37.140625 11.988281 37.144531 12.066406 37.144531 12.148438 C 37.140625 12.222656 37.140625 12.296875 37.136719 12.371094 C 37.132812 12.667969 37.121094 12.953125 37.097656 13.210938 C 37.046875 13.726562 36.957031 14.148438 36.832031 14.421875 C 36.714844 14.695312 36.597656 14.824219 36.550781 14.804688 C 36.496094 14.78125 36.507812 14.621094 36.523438 14.347656 C 36.539062 14.191406 36.539062 13.984375 36.539062 13.746094 C 36.421875 14.117188 36.269531 14.542969 36.015625 14.992188 C 35.855469 15.285156 35.648438 15.585938 35.375 15.867188 C 35.105469 16.144531 34.753906 16.394531 34.363281 16.578125 C 33.664062 16.941406 32.808594 17.28125 31.96875 17.644531 C 31.761719 17.742188 31.550781 17.84375 31.332031 17.941406 C 31.234375 17.996094 31.109375 18.046875 31.023438 18.09375 C 30.964844 18.128906 30.945312 18.144531 30.894531 18.175781 C 30.851562 18.210938 30.804688 18.238281 30.761719 18.277344 C 30.390625 18.554688 30.027344 18.902344 29.691406 19.273438 C 29.359375 19.644531 29.039062 20.058594 28.816406 20.5 C 28.703125 20.714844 28.621094 20.941406 28.601562 21.144531 C 28.59375 21.199219 28.589844 21.25 28.59375 21.296875 C 28.671875 21.167969 28.769531 21.042969 28.882812 20.9375 C 29.128906 20.71875 29.40625 20.566406 29.703125 20.5 C 29.855469 20.472656 30.011719 20.464844 30.160156 20.511719 C 30.3125 20.558594 30.441406 20.671875 30.496094 20.789062 C 30.507812 20.808594 30.515625 20.824219 30.523438 20.84375 C 30.589844 20.792969 30.660156 20.746094 30.738281 20.695312 L 30.800781 20.652344 L 30.832031 20.632812 L 30.882812 20.609375 L 30.984375 20.558594 L 31.191406 20.460938 C 31.808594 20.179688 32.433594 20.039062 33.019531 19.914062 C 33.308594 19.851562 33.59375 19.792969 33.875 19.734375 C 34.019531 19.703125 34.148438 19.667969 34.285156 19.632812 L 34.410156 19.605469 L 34.515625 19.578125 L 34.726562 19.535156 C 35.011719 19.476562 35.269531 19.398438 35.597656 19.382812 C 35.90625 19.355469 36.214844 19.316406 36.507812 19.347656 C 36.660156 19.355469 36.804688 19.359375 36.949219 19.367188 C 37.09375 19.382812 37.234375 19.410156 37.375 19.433594 C 37.519531 19.460938 37.660156 19.476562 37.796875 19.507812 C 37.929688 19.539062 38.0625 19.570312 38.199219 19.605469 C 38.726562 19.734375 39.21875 19.894531 39.695312 20.03125 C 39.929688 20.101562 40.167969 20.164062 40.394531 20.222656 C 40.511719 20.253906 40.625 20.285156 40.738281 20.3125 L 40.78125 20.324219 L 40.804688 20.328125 L 40.8125 20.332031 C 40.8125 20.335938 40.890625 20.347656 40.890625 20.347656 L 41.0625 20.375 C 41.183594 20.398438 41.289062 20.40625 41.386719 20.414062 C 41.492188 20.421875 41.59375 20.433594 41.707031 20.4375 C 41.933594 20.449219 42.160156 20.460938 42.378906 20.472656 C 42.828125 20.507812 43.28125 20.558594 43.707031 20.726562 C 43.8125 20.761719 43.90625 20.828125 44.003906 20.875 L 44.152344 20.953125 L 44.1875 20.972656 L 44.1875 20.976562 C 44.1875 20.976562 44.234375 21.007812 44.226562 21.003906 C 44.234375 21.007812 44.246094 21.015625 44.246094 21.015625 L 44.300781 21.066406 C 44.433594 21.175781 44.605469 21.34375 44.722656 21.488281 C 44.972656 21.785156 45.164062 22.089844 45.320312 22.378906 C 45.628906 22.957031 45.820312 23.480469 45.972656 23.898438 C 46.265625 24.75 46.40625 25.21875 46.351562 25.246094 C 46.292969 25.277344 46.039062 24.839844 45.652344 24.035156 C 45.449219 23.640625 45.210938 23.152344 44.882812 22.632812 C 44.722656 22.375 44.527344 22.113281 44.300781 21.871094 C 44.179688 21.746094 44.082031 21.65625 43.917969 21.535156 L 43.867188 21.496094 C 43.859375 21.492188 43.832031 21.480469 43.832031 21.480469 L 43.71875 21.429688 C 43.636719 21.398438 43.570312 21.34375 43.484375 21.328125 C 43.4375 21.3125 43.386719 21.300781 43.339844 21.285156 C 43.824219 22.257812 44.136719 23.339844 44.535156 24.332031 C 45.03125 25.574219 45.496094 26.710938 45.582031 28.027344 C 47.265625 28.117188 48.839844 27.621094 50.492188 27.328125 Z M 52.660156 26.332031 C 52.976562 27.027344 53.027344 27.589844 51.820312 27.878906 C 49.691406 28.382812 47.394531 29.03125 45.203125 28.800781 C 44.984375 28.777344 44.804688 28.636719 44.804688 28.398438 C 44.789062 26.992188 44.277344 25.824219 43.765625 24.546875 C 43.324219 23.453125 42.96875 22.175781 42.363281 21.167969 C 42.355469 21.167969 42.351562 21.167969 42.34375 21.167969 C 42.128906 21.164062 41.90625 21.160156 41.683594 21.160156 C 41.460938 21.15625 41.171875 21.148438 40.945312 21.117188 L 40.773438 21.089844 L 40.683594 21.082031 L 40.570312 21.054688 C 40.453125 21.027344 40.332031 21 40.214844 20.972656 C 39.972656 20.917969 39.726562 20.863281 39.484375 20.792969 C 38.992188 20.667969 38.503906 20.523438 38 20.414062 C 37.878906 20.382812 37.753906 20.355469 37.628906 20.328125 C 37.503906 20.300781 37.375 20.289062 37.25 20.269531 C 37.125 20.253906 36.996094 20.230469 36.871094 20.21875 C 36.742188 20.214844 36.613281 20.214844 36.488281 20.207031 C 36.226562 20.183594 35.980469 20.222656 35.730469 20.246094 C 35.488281 20.25 35.191406 20.335938 34.917969 20.398438 L 34.601562 20.46875 L 34.515625 20.488281 C 34.371094 20.527344 34.222656 20.570312 34.078125 20.601562 C 33.789062 20.664062 33.5 20.726562 33.203125 20.792969 C 32.632812 20.917969 32.074219 21.050781 31.582031 21.273438 L 31.375 21.371094 L 31.285156 21.414062 C 31.28125 21.417969 31.273438 21.421875 31.273438 21.421875 L 31.253906 21.433594 L 31.21875 21.457031 C 31.121094 21.519531 31.007812 21.605469 30.886719 21.695312 C 30.65625 21.878906 30.410156 22.070312 30.144531 22.25 C 29.871094 22.425781 29.585938 22.609375 29.164062 22.683594 C 29.066406 22.703125 28.941406 22.699219 28.828125 22.691406 C 28.765625 22.683594 28.683594 22.660156 28.613281 22.640625 C 28.578125 22.625 28.542969 22.613281 28.507812 22.597656 C 28.484375 22.589844 28.472656 22.578125 28.457031 22.570312 L 28.359375 22.515625 C 28.324219 22.492188 28.308594 22.484375 28.304688 22.480469 C 28.308594 22.480469 28.3125 22.484375 28.304688 22.480469 L 28.300781 22.480469 L 28.296875 22.472656 L 28.285156 22.460938 L 28.253906 22.4375 L 28.199219 22.386719 C 28.125 22.328125 28.0625 22.242188 27.996094 22.167969 C 27.992188 22.160156 27.984375 22.152344 27.980469 22.140625 C 27.976562 22.152344 27.972656 22.160156 27.96875 22.167969 C 27.902344 22.242188 27.839844 22.328125 27.765625 22.386719 L 27.707031 22.4375 L 27.679688 22.460938 L 27.660156 22.480469 C 27.660156 22.480469 27.648438 22.484375 27.601562 22.515625 L 27.507812 22.570312 C 27.488281 22.578125 27.480469 22.589844 27.457031 22.597656 C 27.421875 22.613281 27.386719 22.625 27.351562 22.640625 C 27.28125 22.660156 27.199219 22.683594 27.136719 22.691406 C 27.019531 22.699219 26.898438 22.703125 26.800781 22.683594 C 26.378906 22.609375 26.089844 22.425781 25.820312 22.25 C 25.546875 22.070312 25.308594 21.878906 25.074219 21.695312 C 24.957031 21.605469 24.84375 21.519531 24.742188 21.457031 L 24.707031 21.433594 L 24.691406 21.421875 L 24.683594 21.417969 C 24.679688 21.414062 24.589844 21.371094 24.589844 21.371094 L 24.382812 21.273438 C 23.890625 21.050781 23.332031 20.917969 22.757812 20.792969 C 22.464844 20.726562 22.175781 20.664062 21.886719 20.601562 C 21.742188 20.570312 21.59375 20.527344 21.445312 20.488281 L 21.359375 20.46875 L 21.257812 20.445312 L 21.046875 20.398438 C 20.769531 20.335938 20.476562 20.25 20.238281 20.246094 C 19.984375 20.222656 19.738281 20.183594 19.476562 20.207031 C 19.347656 20.214844 19.222656 20.214844 19.09375 20.21875 C 18.964844 20.230469 18.839844 20.253906 18.710938 20.269531 C 18.585938 20.289062 18.460938 20.300781 18.335938 20.328125 C 18.210938 20.355469 18.085938 20.382812 17.960938 20.414062 C 17.460938 20.523438 16.96875 20.667969 16.476562 20.792969 C 16.238281 20.863281 15.992188 20.917969 15.75 20.972656 C 15.628906 21 15.511719 21.027344 15.390625 21.054688 L 15.28125 21.082031 L 15.191406 21.089844 L 15.015625 21.117188 C 14.792969 21.148438 14.5 21.15625 14.28125 21.160156 C 14.054688 21.160156 13.832031 21.164062 13.617188 21.167969 C 13.609375 21.167969 13.609375 21.167969 13.601562 21.167969 C 12.992188 22.175781 12.640625 23.453125 12.199219 24.546875 C 11.6875 25.824219 11.175781 26.992188 11.160156 28.398438 C 11.15625 28.636719 10.976562 28.777344 10.757812 28.800781 C 9.238281 28.960938 7.789062 28.648438 6.308594 28.320312 C 5.515625 28.144531 4.652344 28.078125 3.890625 27.804688 C 2.875 27.433594 2.992188 26.890625 3.3125 26.253906 C 3.324219 26.195312 3.351562 26.132812 3.394531 26.078125 C 3.402344 26.066406 3.410156 26.058594 3.417969 26.046875 C 3.546875 25.804688 3.6875 25.550781 3.800781 25.289062 C 3.835938 25.203125 3.890625 25.148438 3.949219 25.117188 C 4.457031 23.925781 4.632812 22.445312 5.066406 21.320312 C 5.625 19.875 6.257812 18.4375 6.910156 17.027344 C 7.550781 15.636719 8.269531 14.296875 9.316406 13.164062 C 10.371094 12.03125 11.523438 11.015625 12.410156 9.738281 C 13.277344 8.492188 13.828125 7.203125 14.574219 5.898438 C 15.222656 4.761719 16.15625 4.238281 17.273438 3.601562 C 18.9375 2.65625 20.59375 0.015625 22.71875 0.238281 C 22.773438 0.246094 22.824219 0.261719 22.871094 0.285156 C 22.917969 0.285156 22.96875 0.300781 23.023438 0.328125 C 24.132812 0.886719 26.042969 1.253906 26.640625 2.476562 C 26.652344 2.503906 26.664062 2.527344 26.667969 2.554688 C 26.699219 2.613281 26.71875 2.675781 26.726562 2.742188 C 26.757812 2.996094 26.726562 3.25 26.691406 3.503906 C 26.773438 3.558594 26.851562 3.617188 26.929688 3.6875 C 27.007812 3.761719 27.085938 3.832031 27.152344 3.921875 L 27.257812 4.054688 C 27.289062 4.113281 27.316406 4.167969 27.347656 4.226562 C 27.371094 4.277344 27.410156 4.351562 27.417969 4.386719 L 27.457031 4.511719 L 27.472656 4.570312 L 27.476562 4.585938 L 27.480469 4.59375 L 27.496094 4.648438 L 27.496094 4.679688 L 27.515625 4.8125 C 27.566406 5.164062 27.59375 5.496094 27.628906 5.804688 C 27.648438 5.945312 27.667969 6.082031 27.6875 6.222656 C 27.730469 6.375 27.773438 6.527344 27.8125 6.675781 C 27.847656 6.808594 27.910156 6.960938 27.980469 7.125 C 28.050781 6.960938 28.117188 6.808594 28.148438 6.675781 C 28.191406 6.527344 28.234375 6.375 28.277344 6.222656 C 28.296875 6.082031 28.3125 5.945312 28.335938 5.804688 C 28.367188 5.496094 28.394531 5.164062 28.449219 4.8125 L 28.464844 4.679688 L 28.46875 4.648438 L 28.484375 4.59375 L 28.484375 4.585938 L 28.488281 4.570312 L 28.507812 4.511719 L 28.542969 4.386719 C 28.550781 4.351562 28.589844 4.277344 28.617188 4.226562 C 28.644531 4.167969 28.675781 4.113281 28.703125 4.054688 L 28.808594 3.921875 C 28.875 3.832031 28.953125 3.761719 29.035156 3.6875 C 29.109375 3.617188 29.191406 3.558594 29.273438 3.503906 C 29.234375 3.25 29.207031 2.996094 29.234375 2.742188 C 29.246094 2.675781 29.261719 2.613281 29.292969 2.554688 C 29.300781 2.527344 29.3125 2.503906 29.320312 2.476562 C 29.921875 1.253906 31.828125 0.886719 32.941406 0.328125 C 32.996094 0.300781 33.042969 0.285156 33.097656 0.285156 C 33.136719 0.261719 33.1875 0.246094 33.242188 0.238281 C 34.210938 0.136719 35.050781 0.683594 35.765625 1.28125 C 36.851562 2.191406 37.796875 3.105469 39.046875 3.800781 C 40.167969 4.421875 41.019531 5.050781 41.5625 6.246094 C 42.132812 7.5 42.746094 8.617188 43.550781 9.738281 C 44.546875 11.125 45.855469 12.183594 46.933594 13.492188 C 47.917969 14.6875 48.628906 16.035156 49.246094 17.449219 C 49.855469 18.859375 50.566406 20.273438 51.042969 21.738281 C 51.363281 22.730469 51.566406 24.050781 52.019531 25.121094 C 52.078125 25.152344 52.128906 25.207031 52.164062 25.289062 C 52.261719 25.523438 52.378906 25.75 52.488281 25.964844 C 52.515625 26.003906 52.539062 26.042969 52.570312 26.078125 C 52.628906 26.160156 52.65625 26.246094 52.660156 26.332031 " fill-opacity="1" fill-rule="nonzero"/><g fill="#f5eadc" fill-opacity="1"><g transform="translate(24.633558, 12.207224)"><g><path d="M 1.109375 -2.078125 C 1.128906 -2.023438 1.140625 -1.988281 1.140625 -1.96875 C 1.148438 -1.9375 1.140625 -1.90625 1.109375 -1.875 C 1.109375 -1.875 1.101562 -1.875 1.09375 -1.875 C 1.113281 -1.78125 1.117188 -1.691406 1.109375 -1.609375 C 1.097656 -1.535156 1.085938 -1.46875 1.078125 -1.40625 C 1.179688 -1.570312 1.257812 -1.695312 1.3125 -1.78125 C 1.4375 -1.945312 1.554688 -2.066406 1.671875 -2.140625 C 1.703125 -2.160156 1.742188 -2.175781 1.796875 -2.1875 C 1.847656 -2.195312 1.894531 -2.195312 1.9375 -2.1875 C 1.988281 -2.1875 2.03125 -2.171875 2.0625 -2.140625 C 2.09375 -2.109375 2.109375 -2.0625 2.109375 -2 C 2.054688 -1.632812 2 -1.289062 1.9375 -0.96875 C 1.875 -0.644531 1.796875 -0.335938 1.703125 -0.046875 C 1.679688 0.015625 1.625 0.0625 1.53125 0.09375 C 1.4375 0.125 1.359375 0.128906 1.296875 0.109375 C 1.203125 0.078125 1.160156 0.03125 1.171875 -0.03125 L 1.171875 -0.109375 C 1.179688 -0.148438 1.1875 -0.175781 1.1875 -0.1875 C 1.1875 -0.207031 1.1875 -0.222656 1.1875 -0.234375 C 1.195312 -0.285156 1.207031 -0.332031 1.21875 -0.375 C 1.226562 -0.414062 1.234375 -0.445312 1.234375 -0.46875 C 1.242188 -0.5 1.25 -0.523438 1.25 -0.546875 C 1.257812 -0.566406 1.269531 -0.585938 1.28125 -0.609375 C 1.207031 -0.503906 1.15625 -0.441406 1.125 -0.421875 C 1.039062 -0.367188 0.953125 -0.347656 0.859375 -0.359375 C 0.796875 -0.359375 0.757812 -0.367188 0.75 -0.390625 C 0.726562 -0.441406 0.710938 -0.472656 0.703125 -0.484375 C 0.691406 -0.503906 0.679688 -0.53125 0.671875 -0.5625 C 0.628906 -0.34375 0.582031 -0.191406 0.53125 -0.109375 C 0.507812 -0.0664062 0.492188 -0.03125 0.484375 0 C 0.453125 0.0625 0.390625 0.101562 0.296875 0.125 C 0.203125 0.144531 0.117188 0.144531 0.046875 0.125 C -0.0351562 0.09375 -0.078125 0.046875 -0.078125 -0.015625 C -0.078125 -0.0859375 -0.0625 -0.175781 -0.03125 -0.28125 C -0.0078125 -0.382812 0.015625 -0.492188 0.046875 -0.609375 C 0.140625 -0.972656 0.207031 -1.207031 0.25 -1.3125 C 0.289062 -1.425781 0.328125 -1.515625 0.359375 -1.578125 C 0.421875 -1.722656 0.476562 -1.832031 0.53125 -1.90625 C 0.59375 -2.019531 0.691406 -2.085938 0.828125 -2.109375 C 0.941406 -2.128906 1.035156 -2.117188 1.109375 -2.078125 Z M 1.109375 -2.078125 "/></g></g></g><g fill="#f5eadc" fill-opacity="1"><g transform="translate(27.111012, 12.207224)"><g><path d="M 0.578125 -1.875 C 0.691406 -2.019531 0.820312 -2.109375 0.96875 -2.140625 C 1.070312 -2.160156 1.171875 -2.15625 1.265625 -2.125 C 1.328125 -2.195312 1.414062 -2.222656 1.53125 -2.203125 C 1.632812 -2.179688 1.722656 -2.125 1.796875 -2.03125 C 1.796875 -2.019531 1.800781 -2 1.8125 -1.96875 C 1.832031 -1.945312 1.847656 -1.921875 1.859375 -1.890625 C 1.941406 -1.691406 1.945312 -1.4375 1.875 -1.125 C 1.789062 -0.726562 1.632812 -0.394531 1.40625 -0.125 C 1.34375 -0.0390625 1.269531 0.0234375 1.1875 0.078125 C 1.039062 0.179688 0.875 0.226562 0.6875 0.21875 C 0.570312 0.207031 0.472656 0.175781 0.390625 0.125 C 0.078125 -0.03125 -0.0234375 -0.359375 0.078125 -0.859375 C 0.171875 -1.265625 0.335938 -1.601562 0.578125 -1.875 Z M 0.609375 -0.375 L 0.609375 -0.328125 C 0.617188 -0.265625 0.640625 -0.21875 0.671875 -0.1875 C 0.703125 -0.15625 0.722656 -0.132812 0.734375 -0.125 C 0.753906 -0.144531 0.773438 -0.160156 0.796875 -0.171875 C 0.816406 -0.179688 0.832031 -0.195312 0.84375 -0.21875 C 0.96875 -0.375 1.066406 -0.582031 1.140625 -0.84375 C 1.210938 -1.101562 1.238281 -1.34375 1.21875 -1.5625 C 1.144531 -1.46875 1.066406 -1.359375 0.984375 -1.234375 C 0.910156 -1.109375 0.847656 -1.003906 0.796875 -0.921875 C 0.691406 -0.710938 0.628906 -0.53125 0.609375 -0.375 Z M 0.609375 -0.375 "/></g></g></g><g fill="#f5eadc" fill-opacity="1"><g transform="translate(29.440221, 12.207224)"><g><path d="M 1.125 -2.140625 C 1.394531 -2.203125 1.609375 -2.171875 1.765625 -2.046875 C 1.835938 -1.984375 1.882812 -1.894531 1.90625 -1.78125 C 1.925781 -1.675781 1.914062 -1.550781 1.875 -1.40625 C 1.851562 -1.34375 1.816406 -1.296875 1.765625 -1.265625 C 1.710938 -1.234375 1.660156 -1.210938 1.609375 -1.203125 C 1.554688 -1.203125 1.503906 -1.210938 1.453125 -1.234375 C 1.410156 -1.253906 1.390625 -1.28125 1.390625 -1.3125 L 1.359375 -1.375 C 1.316406 -1.4375 1.238281 -1.441406 1.125 -1.390625 C 1.03125 -1.347656 0.9375 -1.273438 0.84375 -1.171875 C 0.738281 -1.054688 0.671875 -0.953125 0.640625 -0.859375 C 0.597656 -0.753906 0.578125 -0.6875 0.578125 -0.65625 C 0.578125 -0.582031 0.601562 -0.515625 0.65625 -0.453125 C 0.738281 -0.398438 0.816406 -0.375 0.890625 -0.375 C 0.972656 -0.382812 1.046875 -0.40625 1.109375 -0.4375 C 1.171875 -0.46875 1.222656 -0.503906 1.265625 -0.546875 C 1.304688 -0.585938 1.328125 -0.617188 1.328125 -0.640625 C 1.335938 -0.648438 1.34375 -0.660156 1.34375 -0.671875 C 1.351562 -0.679688 1.359375 -0.691406 1.359375 -0.703125 C 1.347656 -0.703125 1.347656 -0.703125 1.359375 -0.703125 C 1.367188 -0.703125 1.367188 -0.703125 1.359375 -0.703125 C 1.359375 -0.703125 1.363281 -0.703125 1.375 -0.703125 L 1.40625 -0.6875 C 1.3125 -0.601562 1.21875 -0.585938 1.125 -0.640625 C 1.09375 -0.660156 1.0625 -0.679688 1.03125 -0.703125 C 1.007812 -0.734375 0.988281 -0.75 0.96875 -0.75 C 0.925781 -0.769531 0.914062 -0.8125 0.9375 -0.875 C 0.945312 -0.90625 0.960938 -0.929688 0.984375 -0.953125 C 1.015625 -0.972656 1.050781 -0.988281 1.09375 -1 C 1.28125 -1.082031 1.453125 -1.101562 1.609375 -1.0625 C 1.679688 -1.039062 1.726562 -1 1.75 -0.9375 C 1.78125 -0.882812 1.796875 -0.820312 1.796875 -0.75 C 1.796875 -0.675781 1.78125 -0.601562 1.75 -0.53125 C 1.71875 -0.457031 1.6875 -0.394531 1.65625 -0.34375 C 1.625 -0.300781 1.578125 -0.25 1.515625 -0.1875 C 1.460938 -0.132812 1.394531 -0.078125 1.3125 -0.015625 C 1.09375 0.117188 0.863281 0.1875 0.625 0.1875 C 0.269531 0.175781 0.0546875 0.03125 -0.015625 -0.25 C -0.0351562 -0.34375 -0.0390625 -0.445312 -0.03125 -0.5625 C -0.0195312 -0.894531 0.078125 -1.203125 0.265625 -1.484375 C 0.347656 -1.617188 0.460938 -1.753906 0.609375 -1.890625 C 0.691406 -1.972656 0.789062 -2.035156 0.90625 -2.078125 C 0.96875 -2.097656 1.039062 -2.117188 1.125 -2.140625 Z M 1.125 -2.140625 "/></g></g></g><g fill="#f5eadc" fill-opacity="1"><g transform="translate(22.814617, 15.295711)"><g><path d="M 0.546875 -0.796875 C 0.460938 -0.828125 0.425781 -0.875 0.4375 -0.9375 C 0.445312 -1.007812 0.492188 -1.082031 0.578125 -1.15625 C 0.609375 -1.195312 0.648438 -1.238281 0.703125 -1.28125 C 0.765625 -1.332031 0.820312 -1.382812 0.875 -1.4375 C 1.019531 -1.570312 1.101562 -1.675781 1.125 -1.75 C 1.039062 -1.726562 0.96875 -1.707031 0.90625 -1.6875 C 0.84375 -1.664062 0.789062 -1.648438 0.75 -1.640625 C 0.707031 -1.640625 0.671875 -1.640625 0.640625 -1.640625 C 0.617188 -1.648438 0.597656 -1.664062 0.578125 -1.6875 C 0.554688 -1.707031 0.539062 -1.734375 0.53125 -1.765625 C 0.519531 -1.796875 0.515625 -1.828125 0.515625 -1.859375 C 0.515625 -1.929688 0.550781 -1.976562 0.625 -2 C 0.632812 -2 0.644531 -2.003906 0.65625 -2.015625 C 0.664062 -2.035156 0.675781 -2.050781 0.6875 -2.0625 C 0.71875 -2.101562 0.753906 -2.128906 0.796875 -2.140625 C 0.847656 -2.160156 0.898438 -2.179688 0.953125 -2.203125 C 1.015625 -2.222656 1.078125 -2.242188 1.140625 -2.265625 C 1.359375 -2.316406 1.53125 -2.28125 1.65625 -2.15625 C 1.738281 -2.070312 1.769531 -1.953125 1.75 -1.796875 C 1.738281 -1.710938 1.710938 -1.617188 1.671875 -1.515625 C 1.628906 -1.453125 1.582031 -1.398438 1.53125 -1.359375 C 1.488281 -1.316406 1.445312 -1.28125 1.40625 -1.25 C 1.363281 -1.226562 1.320312 -1.195312 1.28125 -1.15625 C 1.382812 -1.144531 1.457031 -1.109375 1.5 -1.046875 C 1.550781 -0.984375 1.582031 -0.90625 1.59375 -0.8125 C 1.613281 -0.625 1.5625 -0.421875 1.4375 -0.203125 C 1.289062 0.0351562 0.972656 0.175781 0.484375 0.21875 C 0.359375 0.226562 0.25 0.210938 0.15625 0.171875 C 0.0625 0.140625 0.0078125 0.0859375 0 0.015625 C -0.0195312 -0.0234375 -0.0195312 -0.0664062 0 -0.109375 C 0.0078125 -0.160156 0.03125 -0.203125 0.0625 -0.234375 C 0.09375 -0.273438 0.128906 -0.300781 0.171875 -0.3125 C 0.210938 -0.332031 0.253906 -0.332031 0.296875 -0.3125 C 0.398438 -0.300781 0.472656 -0.296875 0.515625 -0.296875 C 0.578125 -0.304688 0.664062 -0.335938 0.78125 -0.390625 C 0.820312 -0.410156 0.863281 -0.441406 0.90625 -0.484375 C 0.945312 -0.523438 0.976562 -0.566406 1 -0.609375 C 1.03125 -0.648438 1.039062 -0.679688 1.03125 -0.703125 C 1.03125 -0.734375 1.003906 -0.75 0.953125 -0.75 C 0.910156 -0.757812 0.851562 -0.765625 0.78125 -0.765625 C 0.707031 -0.765625 0.628906 -0.773438 0.546875 -0.796875 Z M 0.546875 -0.796875 "/></g></g></g><g fill="#f5eadc" fill-opacity="1"><g transform="translate(25.024084, 15.295711)"><g><path d="M 0.546875 -0.796875 C 0.460938 -0.828125 0.425781 -0.875 0.4375 -0.9375 C 0.445312 -1.007812 0.492188 -1.082031 0.578125 -1.15625 C 0.609375 -1.195312 0.648438 -1.238281 0.703125 -1.28125 C 0.765625 -1.332031 0.820312 -1.382812 0.875 -1.4375 C 1.019531 -1.570312 1.101562 -1.675781 1.125 -1.75 C 1.039062 -1.726562 0.96875 -1.707031 0.90625 -1.6875 C 0.84375 -1.664062 0.789062 -1.648438 0.75 -1.640625 C 0.707031 -1.640625 0.671875 -1.640625 0.640625 -1.640625 C 0.617188 -1.648438 0.597656 -1.664062 0.578125 -1.6875 C 0.554688 -1.707031 0.539062 -1.734375 0.53125 -1.765625 C 0.519531 -1.796875 0.515625 -1.828125 0.515625 -1.859375 C 0.515625 -1.929688 0.550781 -1.976562 0.625 -2 C 0.632812 -2 0.644531 -2.003906 0.65625 -2.015625 C 0.664062 -2.035156 0.675781 -2.050781 0.6875 -2.0625 C 0.71875 -2.101562 0.753906 -2.128906 0.796875 -2.140625 C 0.847656 -2.160156 0.898438 -2.179688 0.953125 -2.203125 C 1.015625 -2.222656 1.078125 -2.242188 1.140625 -2.265625 C 1.359375 -2.316406 1.53125 -2.28125 1.65625 -2.15625 C 1.738281 -2.070312 1.769531 -1.953125 1.75 -1.796875 C 1.738281 -1.710938 1.710938 -1.617188 1.671875 -1.515625 C 1.628906 -1.453125 1.582031 -1.398438 1.53125 -1.359375 C 1.488281 -1.316406 1.445312 -1.28125 1.40625 -1.25 C 1.363281 -1.226562 1.320312 -1.195312 1.28125 -1.15625 C 1.382812 -1.144531 1.457031 -1.109375 1.5 -1.046875 C 1.550781 -0.984375 1.582031 -0.90625 1.59375 -0.8125 C 1.613281 -0.625 1.5625 -0.421875 1.4375 -0.203125 C 1.289062 0.0351562 0.972656 0.175781 0.484375 0.21875 C 0.359375 0.226562 0.25 0.210938 0.15625 0.171875 C 0.0625 0.140625 0.0078125 0.0859375 0 0.015625 C -0.0195312 -0.0234375 -0.0195312 -0.0664062 0 -0.109375 C 0.0078125 -0.160156 0.03125 -0.203125 0.0625 -0.234375 C 0.09375 -0.273438 0.128906 -0.300781 0.171875 -0.3125 C 0.210938 -0.332031 0.253906 -0.332031 0.296875 -0.3125 C 0.398438 -0.300781 0.472656 -0.296875 0.515625 -0.296875 C 0.578125 -0.304688 0.664062 -0.335938 0.78125 -0.390625 C 0.820312 -0.410156 0.863281 -0.441406 0.90625 -0.484375 C 0.945312 -0.523438 0.976562 -0.566406 1 -0.609375 C 1.03125 -0.648438 1.039062 -0.679688 1.03125 -0.703125 C 1.03125 -0.734375 1.003906 -0.75 0.953125 -0.75 C 0.910156 -0.757812 0.851562 -0.765625 0.78125 -0.765625 C 0.707031 -0.765625 0.628906 -0.773438 0.546875 -0.796875 Z M 0.546875 -0.796875 "/></g></g></g><g fill="#f5eadc" fill-opacity="1"><g transform="translate(27.233552, 15.295711)"><g><path d="M 0.96875 -1.640625 C 0.875 -1.648438 0.773438 -1.65625 0.671875 -1.65625 C 0.578125 -1.65625 0.5 -1.65625 0.4375 -1.65625 C 0.382812 -1.65625 0.332031 -1.660156 0.28125 -1.671875 C 0.238281 -1.679688 0.210938 -1.707031 0.203125 -1.75 C 0.191406 -1.800781 0.195312 -1.847656 0.21875 -1.890625 C 0.238281 -1.941406 0.269531 -1.988281 0.3125 -2.03125 C 0.363281 -2.082031 0.429688 -2.109375 0.515625 -2.109375 C 0.597656 -2.117188 0.675781 -2.128906 0.75 -2.140625 C 0.832031 -2.148438 0.90625 -2.160156 0.96875 -2.171875 C 1.039062 -2.179688 1.101562 -2.191406 1.15625 -2.203125 C 1.21875 -2.210938 1.269531 -2.21875 1.3125 -2.21875 C 1.351562 -2.226562 1.394531 -2.234375 1.4375 -2.234375 C 1.476562 -2.242188 1.519531 -2.25 1.5625 -2.25 C 1.632812 -2.238281 1.679688 -2.191406 1.703125 -2.109375 L 1.6875 -2.046875 C 1.769531 -2.015625 1.828125 -1.96875 1.859375 -1.90625 C 1.890625 -1.832031 1.867188 -1.753906 1.796875 -1.671875 C 1.640625 -1.503906 1.457031 -1.242188 1.25 -0.890625 C 1.15625 -0.742188 1.0625 -0.59375 0.96875 -0.4375 C 0.875 -0.289062 0.800781 -0.179688 0.75 -0.109375 C 0.675781 -0.00390625 0.613281 0.078125 0.5625 0.140625 C 0.5625 0.140625 0.554688 0.144531 0.546875 0.15625 C 0.535156 0.164062 0.523438 0.171875 0.515625 0.171875 C 0.515625 0.179688 0.515625 0.1875 0.515625 0.1875 C 0.472656 0.226562 0.421875 0.25 0.359375 0.25 C 0.304688 0.257812 0.25 0.265625 0.1875 0.265625 C 0.125 0.242188 0.078125 0.210938 0.046875 0.171875 C 0.0234375 0.140625 0.015625 0.109375 0.015625 0.078125 C 0.015625 0.0546875 0.0195312 0.03125 0.03125 0 C 0.0507812 -0.0195312 0.0703125 -0.0390625 0.09375 -0.0625 C 0.113281 -0.09375 0.132812 -0.125 0.15625 -0.15625 C 0.257812 -0.34375 0.34375 -0.5 0.40625 -0.625 C 0.46875 -0.757812 0.523438 -0.878906 0.578125 -0.984375 C 0.703125 -1.242188 0.816406 -1.441406 0.921875 -1.578125 Z M 0.96875 -1.640625 "/></g></g></g><g fill="#f5eadc" fill-opacity="1"><g transform="translate(29.303325, 15.295711)"><g><path d="M 0.453125 -1.90625 C 0.484375 -1.957031 0.53125 -2.007812 0.59375 -2.0625 C 0.65625 -2.125 0.726562 -2.171875 0.8125 -2.203125 C 0.988281 -2.285156 1.148438 -2.296875 1.296875 -2.234375 C 1.367188 -2.203125 1.40625 -2.175781 1.40625 -2.15625 C 1.414062 -2.144531 1.421875 -2.132812 1.421875 -2.125 C 1.421875 -2.113281 1.421875 -2.09375 1.421875 -2.0625 C 1.585938 -2.132812 1.707031 -2.085938 1.78125 -1.921875 C 1.84375 -1.773438 1.863281 -1.578125 1.84375 -1.328125 C 1.800781 -1.078125 1.734375 -0.859375 1.640625 -0.671875 C 1.578125 -0.472656 1.46875 -0.289062 1.3125 -0.125 C 1.25 -0.0507812 1.191406 0 1.140625 0.03125 C 1.097656 0.0703125 1.066406 0.09375 1.046875 0.09375 C 1.003906 0.101562 0.96875 0.109375 0.9375 0.109375 C 0.894531 0.117188 0.859375 0.125 0.828125 0.125 C 0.828125 0.132812 0.820312 0.140625 0.8125 0.140625 L 0.734375 0.171875 C 0.722656 0.203125 0.695312 0.222656 0.65625 0.234375 C 0.613281 0.242188 0.5625 0.242188 0.5 0.234375 C 0.445312 0.234375 0.390625 0.21875 0.328125 0.1875 C 0.265625 0.164062 0.222656 0.128906 0.203125 0.078125 C 0.148438 -0.015625 0.117188 -0.09375 0.109375 -0.15625 C 0.0664062 -0.351562 0.0703125 -0.613281 0.125 -0.9375 C 0.15625 -1.164062 0.210938 -1.378906 0.296875 -1.578125 C 0.335938 -1.679688 0.390625 -1.789062 0.453125 -1.90625 Z M 1 -1.59375 C 0.851562 -1.3125 0.757812 -1.007812 0.71875 -0.6875 C 0.695312 -0.570312 0.691406 -0.46875 0.703125 -0.375 L 0.71875 -0.375 C 0.914062 -0.675781 1.066406 -1.003906 1.171875 -1.359375 C 1.203125 -1.484375 1.210938 -1.582031 1.203125 -1.65625 C 1.203125 -1.726562 1.191406 -1.773438 1.171875 -1.796875 C 1.160156 -1.785156 1.15625 -1.78125 1.15625 -1.78125 C 1.144531 -1.789062 1.132812 -1.796875 1.125 -1.796875 C 1.101562 -1.765625 1.078125 -1.726562 1.046875 -1.6875 Z M 1 -1.59375 "/></g></g></g><g fill="#f5eadc" fill-opacity="1"><g transform="translate(31.521348, 15.295711)"><g><path d="M 0.96875 -1.640625 C 0.875 -1.648438 0.773438 -1.65625 0.671875 -1.65625 C 0.578125 -1.65625 0.5 -1.65625 0.4375 -1.65625 C 0.382812 -1.65625 0.332031 -1.660156 0.28125 -1.671875 C 0.238281 -1.679688 0.210938 -1.707031 0.203125 -1.75 C 0.191406 -1.800781 0.195312 -1.847656 0.21875 -1.890625 C 0.238281 -1.941406 0.269531 -1.988281 0.3125 -2.03125 C 0.363281 -2.082031 0.429688 -2.109375 0.515625 -2.109375 C 0.597656 -2.117188 0.675781 -2.128906 0.75 -2.140625 C 0.832031 -2.148438 0.90625 -2.160156 0.96875 -2.171875 C 1.039062 -2.179688 1.101562 -2.191406 1.15625 -2.203125 C 1.21875 -2.210938 1.269531 -2.21875 1.3125 -2.21875 C 1.351562 -2.226562 1.394531 -2.234375 1.4375 -2.234375 C 1.476562 -2.242188 1.519531 -2.25 1.5625 -2.25 C 1.632812 -2.238281 1.679688 -2.191406 1.703125 -2.109375 L 1.6875 -2.046875 C 1.769531 -2.015625 1.828125 -1.96875 1.859375 -1.90625 C 1.890625 -1.832031 1.867188 -1.753906 1.796875 -1.671875 C 1.640625 -1.503906 1.457031 -1.242188 1.25 -0.890625 C 1.15625 -0.742188 1.0625 -0.59375 0.96875 -0.4375 C 0.875 -0.289062 0.800781 -0.179688 0.75 -0.109375 C 0.675781 -0.00390625 0.613281 0.078125 0.5625 0.140625 C 0.5625 0.140625 0.554688 0.144531 0.546875 0.15625 C 0.535156 0.164062 0.523438 0.171875 0.515625 0.171875 C 0.515625 0.179688 0.515625 0.1875 0.515625 0.1875 C 0.472656 0.226562 0.421875 0.25 0.359375 0.25 C 0.304688 0.257812 0.25 0.265625 0.1875 0.265625 C 0.125 0.242188 0.078125 0.210938 0.046875 0.171875 C 0.0234375 0.140625 0.015625 0.109375 0.015625 0.078125 C 0.015625 0.0546875 0.0195312 0.03125 0.03125 0 C 0.0507812 -0.0195312 0.0703125 -0.0390625 0.09375 -0.0625 C 0.113281 -0.09375 0.132812 -0.125 0.15625 -0.15625 C 0.257812 -0.34375 0.34375 -0.5 0.40625 -0.625 C 0.46875 -0.757812 0.523438 -0.878906 0.578125 -0.984375 C 0.703125 -1.242188 0.816406 -1.441406 0.921875 -1.578125 Z M 0.96875 -1.640625 "/></g></g></g><g fill="#f5eadc" fill-opacity="1"><g transform="translate(61.001119, 12.741854)"><g><path d="M 14.40625 -11.9375 L 14.40625 0 L 12.015625 0 L 12.015625 -5.515625 C 12.015625 -7.410156 12.03125 -8.769531 12.0625 -9.59375 C 11.738281 -8.21875 11.367188 -6.863281 10.953125 -5.53125 L 9.265625 0 L 6.671875 0 L 4.96875 -5.546875 C 4.53125 -7.015625 4.171875 -8.359375 3.890625 -9.578125 C 3.910156 -8.753906 3.921875 -7.398438 3.921875 -5.515625 L 3.921875 0 L 1.546875 0 L 1.546875 -11.9375 L 5.3125 -11.9375 L 8.015625 -2.203125 L 10.703125 -11.9375 Z M 14.40625 -11.9375 "/></g></g></g><g fill="#f5eadc" fill-opacity="1"><g transform="translate(76.505474, 12.741854)"><g><path d="M 3.921875 0 L 1.546875 0 L 1.546875 -11.9375 L 3.921875 -11.9375 Z M 3.921875 0 "/></g></g></g><g fill="#f5eadc" fill-opacity="1"><g transform="translate(81.552598, 12.741854)"><g><path d="M 10.15625 -1.984375 L 10.15625 0 L 1.546875 0 L 1.546875 -11.9375 L 3.921875 -11.9375 L 3.921875 -1.984375 Z M 10.15625 -1.984375 "/></g></g></g><g fill="#f5eadc" fill-opacity="1"><g transform="translate(91.992539, 12.741854)"><g><path d="M 10.15625 -1.984375 L 10.15625 0 L 1.546875 0 L 1.546875 -11.9375 L 3.921875 -11.9375 L 3.921875 -1.984375 Z M 10.15625 -1.984375 "/></g></g></g><g fill="#f5eadc" fill-opacity="1"><g transform="translate(102.43248, 12.741854)"><g><path d="M 10.15625 -1.890625 L 10.15625 0 L 1.546875 0 L 1.546875 -11.9375 L 9.984375 -11.9375 L 9.984375 -10.0625 L 3.921875 -10.0625 L 3.921875 -6.921875 L 9.546875 -6.921875 L 9.546875 -5.03125 L 3.921875 -5.03125 L 3.921875 -1.890625 Z M 10.15625 -1.890625 "/></g></g></g><g fill="#f5eadc" fill-opacity="1"><g transform="translate(113.079837, 12.741854)"><g><path d="M 12.015625 0 L 8.75 0 L 3.84375 -9.0625 C 3.894531 -7.976562 3.921875 -6.753906 3.921875 -5.390625 L 3.921875 0 L 1.546875 0 L 1.546875 -11.9375 L 4.703125 -11.9375 L 9.71875 -2.703125 C 9.664062 -3.773438 9.640625 -5.023438 9.640625 -6.453125 L 9.640625 -11.9375 L 12 -11.9375 Z M 12.015625 0 "/></g></g></g><g fill="#f5eadc" fill-opacity="1"><g transform="translate(126.216186, 12.741854)"><g><path d="M 12.015625 0 L 8.75 0 L 3.84375 -9.0625 C 3.894531 -7.976562 3.921875 -6.753906 3.921875 -5.390625 L 3.921875 0 L 1.546875 0 L 1.546875 -11.9375 L 4.703125 -11.9375 L 9.71875 -2.703125 C 9.664062 -3.773438 9.640625 -5.023438 9.640625 -6.453125 L 9.640625 -11.9375 L 12 -11.9375 Z M 12.015625 0 "/></g></g></g><g fill="#f5eadc" fill-opacity="1"><g transform="translate(139.352535, 12.741854)"><g><path d="M 3.921875 0 L 1.546875 0 L 1.546875 -11.9375 L 3.921875 -11.9375 Z M 3.921875 0 "/></g></g></g><g fill="#f5eadc" fill-opacity="1"><g transform="translate(144.399659, 12.741854)"><g><path d="M 8.015625 -3.59375 L 4 -3.59375 L 2.796875 0 L 0.265625 0 L 4.5625 -11.9375 L 7.5625 -11.9375 L 11.78125 0 L 9.1875 0 Z M 6.015625 -9.890625 L 4.59375 -5.484375 L 7.40625 -5.484375 Z M 6.015625 -9.890625 "/></g></g></g><g fill="#f5eadc" fill-opacity="1"><g transform="translate(156.084096, 12.741854)"><g><path d="M 10.15625 -1.984375 L 10.15625 0 L 1.546875 0 L 1.546875 -11.9375 L 3.921875 -11.9375 L 3.921875 -1.984375 Z M 10.15625 -1.984375 "/></g></g></g><g fill="#f5eadc" fill-opacity="1"><g transform="translate(166.524037, 12.741854)"><g><path d="M 5.5 -12.171875 C 6.863281 -12.171875 7.90625 -11.832031 8.625 -11.15625 C 9.34375 -10.476562 9.769531 -9.566406 9.90625 -8.421875 L 7.46875 -8.421875 C 7.40625 -9.046875 7.195312 -9.53125 6.84375 -9.875 C 6.5 -10.21875 6.019531 -10.390625 5.40625 -10.390625 C 4.914062 -10.390625 4.515625 -10.269531 4.203125 -10.03125 C 3.890625 -9.789062 3.734375 -9.441406 3.734375 -8.984375 C 3.734375 -8.472656 3.921875 -8.070312 4.296875 -7.78125 C 4.671875 -7.488281 5.332031 -7.234375 6.28125 -7.015625 C 7.582031 -6.722656 8.539062 -6.269531 9.15625 -5.65625 C 9.769531 -5.039062 10.078125 -4.25 10.078125 -3.28125 C 10.078125 -2.195312 9.648438 -1.335938 8.796875 -0.703125 C 7.953125 -0.078125 6.910156 0.234375 5.671875 0.234375 C 4.222656 0.234375 3.066406 -0.0820312 2.203125 -0.71875 C 1.335938 -1.351562 0.84375 -2.289062 0.71875 -3.53125 L 3.171875 -3.53125 C 3.296875 -2.894531 3.582031 -2.40625 4.03125 -2.0625 C 4.476562 -1.71875 5.015625 -1.546875 5.640625 -1.546875 C 6.191406 -1.546875 6.65625 -1.679688 7.03125 -1.953125 C 7.40625 -2.234375 7.59375 -2.597656 7.59375 -3.046875 C 7.59375 -3.554688 7.410156 -3.960938 7.046875 -4.265625 C 6.679688 -4.578125 6.066406 -4.835938 5.203125 -5.046875 C 3.867188 -5.367188 2.875 -5.796875 2.21875 -6.328125 C 1.5625 -6.867188 1.234375 -7.65625 1.234375 -8.6875 C 1.234375 -9.75 1.644531 -10.59375 2.46875 -11.21875 C 3.300781 -11.851562 4.3125 -12.171875 5.5 -12.171875 Z M 5.5 -12.171875 "/></g></g></g><g fill="#f5eadc" fill-opacity="1"><g transform="translate(61.001119, 27.700826)"><g><path d="M 6.609375 -11.875 C 8.390625 -11.875 9.796875 -11.328125 10.828125 -10.234375 C 11.859375 -9.140625 12.375 -7.671875 12.375 -5.828125 C 12.375 -3.992188 11.859375 -2.523438 10.828125 -1.421875 C 9.796875 -0.316406 8.390625 0.234375 6.609375 0.234375 C 4.835938 0.234375 3.4375 -0.316406 2.40625 -1.421875 C 1.375 -2.523438 0.859375 -3.992188 0.859375 -5.828125 C 0.859375 -7.671875 1.367188 -9.140625 2.390625 -10.234375 C 3.421875 -11.328125 4.828125 -11.875 6.609375 -11.875 Z M 4.171875 -2.640625 C 4.765625 -1.878906 5.578125 -1.5 6.609375 -1.5 C 7.648438 -1.5 8.460938 -1.878906 9.046875 -2.640625 C 9.628906 -3.410156 9.921875 -4.472656 9.921875 -5.828125 C 9.921875 -7.179688 9.628906 -8.238281 9.046875 -9 C 8.460938 -9.757812 7.648438 -10.140625 6.609375 -10.140625 C 5.566406 -10.140625 4.753906 -9.757812 4.171875 -9 C 3.585938 -8.238281 3.296875 -7.175781 3.296875 -5.8125 C 3.296875 -4.457031 3.585938 -3.398438 4.171875 -2.640625 Z M 4.171875 -2.640625 "/></g></g></g><g fill="#f5eadc" fill-opacity="1"><g transform="translate(73.910947, 27.700826)"><g><path d="M 3.828125 -9.828125 L 3.828125 -6.75 L 9.140625 -6.75 L 9.140625 -4.90625 L 3.828125 -4.90625 L 3.828125 0 L 1.5 0 L 1.5 -11.640625 L 9.734375 -11.640625 L 9.734375 -9.828125 Z M 3.828125 -9.828125 "/></g></g></g><g fill="#f5eadc" fill-opacity="1"><g transform="translate(83.918172, 27.700826)"><g/></g></g><g fill="#f5eadc" fill-opacity="1"><g transform="translate(87.192034, 27.700826)"><g><path d="M 6.828125 -5.9375 L 11.53125 -5.9375 L 11.53125 0 L 9.65625 0 L 9.5 -1.890625 L 8.984375 -0.703125 C 8.335938 -0.078125 7.390625 0.234375 6.140625 0.234375 C 4.523438 0.234375 3.238281 -0.300781 2.28125 -1.375 C 1.332031 -2.445312 0.859375 -3.90625 0.859375 -5.75 C 0.859375 -7.625 1.394531 -9.113281 2.46875 -10.21875 C 3.550781 -11.320312 4.925781 -11.875 6.59375 -11.875 C 8.113281 -11.875 9.300781 -11.503906 10.15625 -10.765625 C 11.007812 -10.035156 11.5 -9.066406 11.625 -7.859375 L 11.640625 -7.6875 L 9.3125 -7.6875 L 9.28125 -7.859375 C 8.976562 -9.378906 8.070312 -10.140625 6.5625 -10.140625 C 5.601562 -10.140625 4.820312 -9.753906 4.21875 -8.984375 C 3.625 -8.222656 3.328125 -7.191406 3.328125 -5.890625 C 3.328125 -4.484375 3.617188 -3.398438 4.203125 -2.640625 C 4.785156 -1.878906 5.550781 -1.5 6.5 -1.5 C 7.25 -1.5 7.875 -1.726562 8.375 -2.1875 C 8.875 -2.65625 9.179688 -3.300781 9.296875 -4.125 L 6.828125 -4.125 Z M 6.828125 -5.9375 "/></g></g></g><g fill="#f5eadc" fill-opacity="1"><g transform="translate(99.62935, 27.700826)"><g><path d="M 10.953125 -11.640625 L 10.953125 -4.734375 C 10.953125 -4.191406 10.941406 -3.738281 10.921875 -3.375 C 10.835938 -2.3125 10.40625 -1.441406 9.625 -0.765625 C 8.84375 -0.0976562 7.6875 0.234375 6.15625 0.234375 C 4.613281 0.234375 3.453125 -0.0976562 2.671875 -0.765625 C 1.890625 -1.441406 1.460938 -2.3125 1.390625 -3.375 C 1.359375 -3.738281 1.34375 -4.191406 1.34375 -4.734375 L 1.34375 -11.640625 L 3.65625 -11.640625 L 3.65625 -4.5 C 3.65625 -4.113281 3.671875 -3.832031 3.703125 -3.65625 C 3.753906 -2.96875 3.984375 -2.4375 4.390625 -2.0625 C 4.804688 -1.6875 5.394531 -1.5 6.15625 -1.5 C 6.914062 -1.5 7.5 -1.6875 7.90625 -2.0625 C 8.3125 -2.4375 8.546875 -2.96875 8.609375 -3.65625 C 8.628906 -3.832031 8.640625 -4.113281 8.640625 -4.5 L 8.640625 -11.640625 Z M 10.953125 -11.640625 "/></g></g></g><g fill="#f5eadc" fill-opacity="1"><g transform="translate(111.47602, 27.700826)"><g><path d="M 9.90625 -1.9375 L 9.90625 0 L 1.5 0 L 1.5 -11.640625 L 3.828125 -11.640625 L 3.828125 -1.9375 Z M 9.90625 -1.9375 "/></g></g></g><g fill="#f5eadc" fill-opacity="1"><g transform="translate(121.668874, 27.700826)"><g><path d="M 3.828125 -9.828125 L 3.828125 -6.75 L 9.140625 -6.75 L 9.140625 -4.90625 L 3.828125 -4.90625 L 3.828125 0 L 1.5 0 L 1.5 -11.640625 L 9.734375 -11.640625 L 9.734375 -9.828125 Z M 3.828125 -9.828125 "/></g></g></g><g fill="#f5eadc" fill-opacity="1"><g transform="translate(131.676099, 27.700826)"><g><path d="M 7.21875 -11.5625 C 8.15625 -11.457031 8.910156 -11.097656 9.484375 -10.484375 C 10.066406 -9.867188 10.359375 -9.046875 10.359375 -8.015625 C 10.359375 -6.992188 10.0625 -6.175781 9.46875 -5.5625 C 8.875 -4.945312 8.125 -4.582031 7.21875 -4.46875 C 6.738281 -4.414062 6.175781 -4.390625 5.53125 -4.390625 L 3.828125 -4.390625 L 3.828125 0 L 1.5 0 L 1.5 -11.640625 L 5.53125 -11.640625 C 6.1875 -11.640625 6.75 -11.613281 7.21875 -11.5625 Z M 6.53125 -6.28125 C 7.457031 -6.414062 7.921875 -6.992188 7.921875 -8.015625 C 7.921875 -9.035156 7.457031 -9.613281 6.53125 -9.75 C 6.269531 -9.78125 5.925781 -9.796875 5.5 -9.796875 L 3.828125 -9.796875 L 3.828125 -6.234375 L 5.5 -6.234375 C 5.925781 -6.234375 6.269531 -6.25 6.53125 -6.28125 Z M 6.53125 -6.28125 "/></g></g></g><g fill="#f5eadc" fill-opacity="1"><g transform="translate(142.189596, 27.700826)"><g><path d="M 6.609375 -11.875 C 8.390625 -11.875 9.796875 -11.328125 10.828125 -10.234375 C 11.859375 -9.140625 12.375 -7.671875 12.375 -5.828125 C 12.375 -3.992188 11.859375 -2.523438 10.828125 -1.421875 C 9.796875 -0.316406 8.390625 0.234375 6.609375 0.234375 C 4.835938 0.234375 3.4375 -0.316406 2.40625 -1.421875 C 1.375 -2.523438 0.859375 -3.992188 0.859375 -5.828125 C 0.859375 -7.671875 1.367188 -9.140625 2.390625 -10.234375 C 3.421875 -11.328125 4.828125 -11.875 6.609375 -11.875 Z M 4.171875 -2.640625 C 4.765625 -1.878906 5.578125 -1.5 6.609375 -1.5 C 7.648438 -1.5 8.460938 -1.878906 9.046875 -2.640625 C 9.628906 -3.410156 9.921875 -4.472656 9.921875 -5.828125 C 9.921875 -7.179688 9.628906 -8.238281 9.046875 -9 C 8.460938 -9.757812 7.648438 -10.140625 6.609375 -10.140625 C 5.566406 -10.140625 4.753906 -9.757812 4.171875 -9 C 3.585938 -8.238281 3.296875 -7.175781 3.296875 -5.8125 C 3.296875 -4.457031 3.585938 -3.398438 4.171875 -2.640625 Z M 4.171875 -2.640625 "/></g></g></g><g fill="#f5eadc" fill-opacity="1"><g transform="translate(155.099424, 27.700826)"><g><path d="M 9.9375 -2.9375 C 10.082031 -1.550781 10.363281 -0.570312 10.78125 0 L 8.234375 0 C 7.953125 -0.78125 7.757812 -1.644531 7.65625 -2.59375 C 7.5 -3.914062 6.976562 -4.609375 6.09375 -4.671875 C 5.875 -4.679688 5.570312 -4.6875 5.1875 -4.6875 L 3.828125 -4.6875 L 3.828125 0 L 1.5 0 L 1.5 -11.640625 L 5.75 -11.640625 C 6.394531 -11.640625 6.957031 -11.613281 7.4375 -11.5625 C 8.363281 -11.445312 9.101562 -11.140625 9.65625 -10.640625 C 10.21875 -10.140625 10.5 -9.414062 10.5 -8.46875 C 10.5 -7.738281 10.296875 -7.132812 9.890625 -6.65625 C 9.484375 -6.175781 8.925781 -5.835938 8.21875 -5.640625 C 9.21875 -5.253906 9.789062 -4.351562 9.9375 -2.9375 Z M 3.828125 -6.421875 L 5.4375 -6.421875 C 5.894531 -6.421875 6.207031 -6.429688 6.375 -6.453125 C 7.488281 -6.546875 8.046875 -7.097656 8.046875 -8.109375 C 8.046875 -8.640625 7.910156 -9.03125 7.640625 -9.28125 C 7.378906 -9.539062 7.003906 -9.703125 6.515625 -9.765625 C 6.242188 -9.804688 5.914062 -9.828125 5.53125 -9.828125 L 3.828125 -9.828125 Z M 3.828125 -6.421875 "/></g></g></g><g fill="#f5eadc" fill-opacity="1"><g transform="translate(166.13606, 27.700826)"><g><path d="M 10.609375 -9.828125 L 6.671875 -9.828125 L 6.671875 0 L 4.34375 0 L 4.34375 -9.828125 L 0.390625 -9.828125 L 0.390625 -11.640625 L 10.609375 -11.640625 Z M 10.609375 -9.828125 "/></g></g></g></svg>