<svg xmlns="http://www.w3.org/2000/svg" xmlns:xlink="http://www.w3.org/1999/xlink" width="280" zoomAndPan="magnify" viewBox="0 0 210 30.000001" height="40" preserveAspectRatio="xMidYMid meet" version="1.0"><defs><g/><clipPath id="7aafb62353"><path d="M 3.386719 0.515625 L 51.714844 0.515625 L 51.714844 28.523438 L 3.386719 28.523438 Z M 3.386719 0.515625 " clip-rule="nonzero"/></clipPath></defs><g clip-path="url(#7aafb62353)"><path fill="#f5eadc" d="M 22.339844 2.878906 L 22.339844 2.871094 L 22.335938 2.871094 C 22.335938 2.871094 22.335938 2.875 22.339844 2.878906 Z M 26.375 21.484375 C 26.480469 21.5 26.605469 21.511719 26.742188 21.507812 C 26.699219 21.355469 26.578125 21.179688 26.410156 21.035156 C 26.230469 20.867188 26.011719 20.738281 25.816406 20.679688 C 25.617188 20.617188 25.484375 20.640625 25.410156 20.730469 C 25.386719 20.75 25.375 20.777344 25.363281 20.800781 C 25.570312 20.964844 25.773438 21.125 25.96875 21.253906 C 26.105469 21.351562 26.25 21.429688 26.375 21.484375 Z M 27.214844 8.65625 C 27.222656 8.503906 27.152344 8.25 27.050781 8.007812 C 26.953125 7.753906 26.808594 7.523438 26.695312 7.167969 C 26.652344 7.019531 26.609375 6.878906 26.566406 6.726562 C 26.535156 6.558594 26.503906 6.386719 26.472656 6.214844 C 26.433594 5.886719 26.402344 5.574219 26.355469 5.277344 L 26.339844 5.160156 L 26.339844 5.148438 L 26.324219 5.089844 L 26.285156 4.972656 C 26.273438 4.929688 26.261719 4.933594 26.25 4.910156 C 26.238281 4.894531 26.230469 4.875 26.222656 4.855469 L 26.167969 4.789062 C 26.136719 4.738281 26.085938 4.703125 26.042969 4.660156 C 25.847656 4.484375 25.585938 4.355469 25.285156 4.199219 C 24.996094 4.042969 24.707031 3.875 24.445312 3.726562 C 23.914062 3.425781 23.390625 3.148438 22.902344 3.027344 C 22.425781 2.914062 22.351562 2.964844 21.914062 3.128906 C 21.8125 3.167969 21.707031 3.238281 21.601562 3.285156 C 21.195312 3.527344 20.839844 3.824219 20.527344 4.105469 C 19.894531 4.675781 19.410156 5.195312 19.042969 5.519531 C 18.679688 5.855469 18.441406 6.003906 18.410156 5.964844 C 18.371094 5.925781 18.527344 5.707031 18.816406 5.316406 C 19.113281 4.929688 19.53125 4.363281 20.136719 3.710938 C 20.445312 3.386719 20.804688 3.042969 21.265625 2.738281 C 21.386719 2.667969 21.496094 2.589844 21.640625 2.527344 C 21.714844 2.492188 21.78125 2.457031 21.855469 2.429688 C 21.925781 2.402344 21.988281 2.382812 22.050781 2.359375 L 22.148438 2.328125 L 22.175781 2.320312 L 22.199219 2.316406 L 22.230469 2.308594 L 22.296875 2.296875 C 22.386719 2.277344 22.472656 2.273438 22.5625 2.269531 C 22.734375 2.269531 22.898438 2.292969 23.058594 2.324219 C 23.699219 2.460938 24.261719 2.753906 24.820312 3.054688 C 25.085938 3.203125 25.335938 3.347656 25.601562 3.484375 C 25.605469 3.417969 25.605469 3.34375 25.601562 3.273438 C 25.320312 2.734375 24.542969 2.445312 24.027344 2.210938 C 23.5 1.976562 22.957031 1.769531 22.441406 1.515625 C 21.199219 1.429688 20.167969 2.695312 19.320312 3.449219 C 18.488281 4.191406 17.542969 4.632812 16.617188 5.230469 C 15.28125 6.097656 15.132812 7.382812 14.351562 8.636719 C 13.703125 9.675781 13 10.765625 12.160156 11.667969 C 11.148438 12.746094 9.945312 13.71875 9.160156 14.988281 C 8.375 16.25 7.789062 17.601562 7.207031 18.96875 C 6.597656 20.410156 6.035156 21.824219 5.578125 23.324219 C 5.269531 24.320312 5.066406 25.386719 4.40625 26.214844 C 4.40625 26.21875 4.398438 26.222656 4.394531 26.226562 C 4.339844 26.398438 4.355469 26.53125 4.542969 26.585938 C 5.054688 26.734375 5.574219 26.816406 6.097656 26.914062 C 7.605469 27.207031 9.054688 27.625 10.597656 27.546875 C 10.679688 26.277344 11.128906 25.179688 11.605469 23.984375 C 11.992188 23.027344 12.292969 21.984375 12.765625 21.046875 C 12.71875 21.058594 12.667969 21.070312 12.625 21.085938 C 12.539062 21.101562 12.472656 21.152344 12.398438 21.183594 L 12.285156 21.234375 L 12.261719 21.246094 C 12.253906 21.25 12.203125 21.285156 12.203125 21.285156 C 12.046875 21.40625 11.953125 21.492188 11.839844 21.609375 C 11.617188 21.84375 11.433594 22.09375 11.269531 22.34375 C 10.957031 22.84375 10.726562 23.316406 10.535156 23.699219 C 10.160156 24.472656 9.917969 24.894531 9.859375 24.867188 C 9.808594 24.839844 9.941406 24.386719 10.222656 23.566406 C 10.371094 23.160156 10.554688 22.65625 10.855469 22.097656 C 11.003906 21.820312 11.1875 21.527344 11.425781 21.242188 C 11.542969 21.101562 11.707031 20.9375 11.839844 20.832031 L 11.890625 20.785156 L 11.902344 20.777344 C 11.902344 20.773438 11.941406 20.75 11.941406 20.75 L 11.949219 20.746094 L 11.980469 20.726562 L 12.121094 20.648438 C 12.214844 20.601562 12.308594 20.539062 12.410156 20.507812 C 12.816406 20.34375 13.253906 20.296875 13.691406 20.261719 C 13.902344 20.25 14.117188 20.242188 14.335938 20.226562 C 14.449219 20.226562 14.542969 20.214844 14.644531 20.207031 C 14.742188 20.199219 14.84375 20.191406 14.960938 20.167969 L 15.128906 20.140625 L 15.199219 20.128906 C 15.199219 20.125 15.210938 20.125 15.210938 20.125 L 15.230469 20.117188 L 15.269531 20.109375 C 15.378906 20.078125 15.492188 20.050781 15.601562 20.019531 C 15.824219 19.964844 16.046875 19.90625 16.277344 19.835938 C 16.738281 19.703125 17.214844 19.550781 17.722656 19.421875 C 17.851562 19.390625 17.980469 19.359375 18.109375 19.328125 C 18.238281 19.300781 18.378906 19.285156 18.515625 19.257812 C 18.652344 19.238281 18.785156 19.210938 18.925781 19.195312 C 19.066406 19.1875 19.207031 19.183594 19.347656 19.175781 C 19.632812 19.148438 19.933594 19.183594 20.230469 19.210938 C 20.546875 19.226562 20.792969 19.300781 21.070312 19.355469 L 21.273438 19.398438 L 21.375 19.421875 L 21.496094 19.453125 C 21.625 19.484375 21.753906 19.519531 21.886719 19.550781 C 22.160156 19.605469 22.441406 19.664062 22.71875 19.722656 C 23.285156 19.84375 23.882812 19.980469 24.480469 20.25 L 24.679688 20.34375 L 24.777344 20.390625 L 24.828125 20.417969 L 24.855469 20.4375 L 24.917969 20.476562 C 24.992188 20.523438 25.0625 20.570312 25.125 20.617188 C 25.132812 20.601562 25.136719 20.585938 25.148438 20.566406 C 25.203125 20.453125 25.328125 20.34375 25.472656 20.300781 C 25.617188 20.253906 25.769531 20.261719 25.910156 20.289062 C 26.199219 20.351562 26.46875 20.5 26.707031 20.710938 C 26.816406 20.8125 26.910156 20.929688 26.988281 21.054688 C 26.988281 21.011719 26.988281 20.960938 26.980469 20.910156 C 26.957031 20.714844 26.875 20.496094 26.769531 20.285156 C 26.554688 19.859375 26.25 19.464844 25.925781 19.101562 C 25.601562 18.746094 25.253906 18.414062 24.894531 18.140625 C 24.851562 18.109375 24.808594 18.078125 24.765625 18.046875 C 24.714844 18.015625 24.699219 18 24.640625 17.96875 C 24.558594 17.921875 24.441406 17.871094 24.34375 17.820312 C 24.132812 17.726562 23.929688 17.628906 23.730469 17.53125 C 22.917969 17.183594 22.09375 16.855469 21.417969 16.503906 C 21.046875 16.328125 20.707031 16.085938 20.445312 15.820312 C 20.183594 15.546875 19.984375 15.257812 19.824219 14.976562 C 19.582031 14.539062 19.433594 14.132812 19.320312 13.773438 C 19.320312 14.003906 19.324219 14.203125 19.335938 14.355469 C 19.351562 14.617188 19.363281 14.769531 19.308594 14.792969 C 19.265625 14.8125 19.152344 14.691406 19.039062 14.425781 C 18.921875 14.164062 18.832031 13.753906 18.785156 13.257812 C 18.761719 13.007812 18.75 12.734375 18.746094 12.449219 C 18.742188 12.375 18.742188 12.304688 18.738281 12.230469 C 18.738281 12.15625 18.738281 12.078125 18.738281 12 C 18.742188 11.835938 18.742188 11.671875 18.765625 11.5 C 18.777344 11.402344 18.792969 11.300781 18.808594 11.199219 C 18.535156 11.726562 18.363281 12.105469 18.28125 12.085938 C 18.160156 12.0625 18.273438 11.207031 18.800781 10.3125 C 18.988281 10 19.199219 9.726562 19.40625 9.523438 C 19.429688 9.480469 19.453125 9.4375 19.476562 9.398438 C 19.574219 9.222656 19.691406 9.058594 19.796875 8.898438 C 19.851562 8.824219 19.90625 8.75 19.960938 8.683594 L 20.042969 8.578125 L 20.082031 8.523438 L 20.113281 8.488281 L 20.136719 8.460938 C 20.269531 8.328125 20.398438 8.195312 20.527344 8.066406 C 20.652344 7.933594 20.789062 7.839844 20.914062 7.730469 C 21.175781 7.511719 21.386719 7.351562 21.609375 7.183594 C 21.820312 6.988281 22.027344 6.8125 22.199219 6.652344 C 22.300781 6.558594 22.410156 6.464844 22.574219 6.402344 C 22.59375 6.394531 22.613281 6.394531 22.632812 6.386719 C 22.539062 6.21875 22.480469 6.042969 22.472656 5.878906 C 22.464844 5.644531 22.53125 5.476562 22.613281 5.371094 C 22.691406 5.28125 22.761719 5.261719 22.8125 5.277344 C 22.863281 5.292969 22.882812 5.371094 22.902344 5.46875 C 22.925781 5.542969 22.957031 5.660156 23.015625 5.765625 C 23.125 5.976562 23.402344 6.230469 23.796875 6.386719 C 24.191406 6.542969 24.546875 6.535156 24.769531 6.4375 C 25.003906 6.339844 25.152344 6.160156 25.261719 6.203125 C 25.308594 6.21875 25.339844 6.285156 25.335938 6.410156 C 25.320312 6.523438 25.269531 6.699219 25.113281 6.871094 C 25.046875 6.945312 24.953125 7.015625 24.847656 7.074219 C 24.851562 7.101562 24.851562 7.128906 24.855469 7.15625 C 25.042969 7.425781 25.261719 7.726562 25.523438 8.007812 C 25.84375 8.359375 26.183594 8.601562 26.492188 8.753906 C 26.667969 8.8125 26.859375 8.851562 27.007812 8.84375 C 27.050781 8.839844 27.082031 8.832031 27.109375 8.824219 C 27.121094 8.816406 27.132812 8.8125 27.140625 8.804688 C 27.144531 8.804688 27.148438 8.800781 27.152344 8.796875 C 27.171875 8.777344 27.199219 8.75 27.214844 8.734375 C 27.203125 8.730469 27.199219 8.734375 27.199219 8.738281 C 27.199219 8.71875 27.214844 8.695312 27.214844 8.65625 Z M 29.789062 20.800781 C 29.777344 20.777344 29.761719 20.75 29.742188 20.730469 C 29.667969 20.640625 29.535156 20.617188 29.332031 20.679688 C 29.140625 20.738281 28.921875 20.867188 28.738281 21.035156 C 28.574219 21.179688 28.453125 21.355469 28.410156 21.507812 C 28.546875 21.511719 28.671875 21.5 28.777344 21.484375 C 28.902344 21.429688 29.046875 21.351562 29.179688 21.253906 C 29.378906 21.125 29.578125 20.964844 29.789062 20.800781 Z M 35.792969 12.90625 C 35.78125 12.765625 35.773438 12.621094 35.757812 12.464844 C 35.753906 12.394531 35.75 12.320312 35.742188 12.246094 C 35.738281 12.175781 35.730469 12.101562 35.722656 12.027344 C 35.710938 11.890625 35.703125 11.742188 35.667969 11.597656 C 35.570312 11.007812 35.351562 10.390625 35 9.789062 C 34.914062 9.640625 34.820312 9.503906 34.730469 9.367188 C 34.679688 9.289062 34.625 9.222656 34.574219 9.148438 L 34.492188 9.042969 L 34.453125 8.988281 C 34.453125 8.984375 34.445312 8.976562 34.445312 8.972656 L 34.421875 8.953125 C 34.316406 8.835938 34.210938 8.714844 34.105469 8.601562 C 34.003906 8.484375 33.871094 8.382812 33.765625 8.273438 C 33.523438 8.050781 33.292969 7.835938 33.078125 7.636719 C 32.886719 7.421875 32.710938 7.230469 32.554688 7.035156 C 32.492188 6.953125 32.421875 6.886719 32.382812 6.863281 C 32.347656 6.839844 32.347656 6.824219 32.28125 6.84375 C 32.148438 6.886719 31.976562 6.996094 31.839844 7.042969 C 31.800781 7.054688 31.765625 7.066406 31.726562 7.074219 C 31.699219 7.089844 31.671875 7.105469 31.640625 7.117188 C 31.429688 7.199219 31.203125 7.242188 30.988281 7.242188 C 30.847656 7.636719 30.601562 8.109375 30.203125 8.542969 C 29.953125 8.808594 29.671875 9.023438 29.378906 9.171875 C 29.171875 9.273438 28.957031 9.335938 28.765625 9.367188 C 28.578125 9.433594 28.371094 9.488281 28.121094 9.492188 C 27.957031 9.484375 27.773438 9.464844 27.574219 9.3125 C 27.375 9.464844 27.191406 9.484375 27.03125 9.492188 C 26.78125 9.488281 26.574219 9.433594 26.386719 9.367188 C 26.191406 9.335938 25.980469 9.273438 25.769531 9.171875 C 25.480469 9.023438 25.195312 8.808594 24.949219 8.542969 C 24.550781 8.109375 24.304688 7.636719 24.160156 7.242188 C 23.945312 7.242188 23.722656 7.199219 23.511719 7.117188 C 23.480469 7.105469 23.453125 7.089844 23.425781 7.074219 C 23.386719 7.066406 23.351562 7.054688 23.3125 7.042969 C 23.175781 6.996094 23.003906 6.886719 22.871094 6.84375 C 22.804688 6.824219 22.804688 6.839844 22.769531 6.863281 C 22.730469 6.886719 22.660156 6.953125 22.597656 7.035156 C 22.441406 7.230469 22.265625 7.421875 22.070312 7.636719 C 21.855469 7.835938 21.628906 8.050781 21.386719 8.273438 C 21.28125 8.382812 21.144531 8.484375 21.046875 8.601562 C 20.941406 8.714844 20.835938 8.835938 20.730469 8.953125 L 20.710938 8.96875 C 20.710938 8.96875 20.699219 8.984375 20.699219 8.988281 L 20.65625 9.042969 L 20.578125 9.148438 C 20.527344 9.222656 20.472656 9.289062 20.417969 9.367188 C 20.332031 9.503906 20.238281 9.640625 20.152344 9.789062 C 19.804688 10.390625 19.582031 11.007812 19.480469 11.597656 C 19.449219 11.742188 19.441406 11.890625 19.425781 12.027344 C 19.421875 12.101562 19.414062 12.175781 19.410156 12.246094 C 19.402344 12.320312 19.394531 12.394531 19.390625 12.464844 C 19.378906 12.621094 19.371094 12.765625 19.359375 12.90625 C 19.417969 13.042969 19.480469 13.195312 19.550781 13.367188 C 19.71875 13.753906 19.917969 14.238281 20.242188 14.722656 C 20.402344 14.96875 20.59375 15.207031 20.828125 15.421875 C 21.066406 15.632812 21.34375 15.8125 21.675781 15.949219 C 22.386719 16.269531 23.148438 16.53125 24.011719 16.867188 C 24.222656 16.957031 24.441406 17.054688 24.660156 17.148438 C 24.773438 17.203125 24.871094 17.238281 25 17.304688 C 25.050781 17.328125 25.128906 17.378906 25.183594 17.414062 C 25.238281 17.449219 25.292969 17.488281 25.347656 17.523438 C 25.769531 17.828125 26.148438 18.171875 26.519531 18.5625 C 26.878906 18.953125 27.230469 19.382812 27.507812 19.90625 C 27.53125 19.949219 27.554688 19.996094 27.574219 20.042969 C 27.597656 19.996094 27.617188 19.949219 27.640625 19.90625 C 27.917969 19.382812 28.269531 18.953125 28.632812 18.5625 C 29.003906 18.171875 29.382812 17.828125 29.804688 17.523438 C 29.859375 17.488281 29.914062 17.449219 29.96875 17.414062 C 30.023438 17.378906 30.101562 17.328125 30.152344 17.304688 C 30.277344 17.238281 30.375 17.203125 30.492188 17.148438 C 30.710938 17.054688 30.929688 16.957031 31.140625 16.867188 C 32.003906 16.53125 32.765625 16.269531 33.476562 15.949219 C 33.808594 15.8125 34.082031 15.632812 34.324219 15.421875 C 34.558594 15.207031 34.75 14.96875 34.910156 14.722656 C 35.230469 14.238281 35.429688 13.753906 35.601562 13.367188 C 35.671875 13.195312 35.734375 13.042969 35.792969 12.90625 Z M 49.285156 26.875 C 49.421875 26.851562 50.871094 26.515625 50.878906 26.53125 C 50.8125 26.378906 50.738281 26.234375 50.65625 26.089844 C 50.070312 25.285156 49.855469 24.273438 49.574219 23.324219 C 49.125 21.824219 48.550781 20.410156 47.941406 18.96875 C 47.371094 17.617188 46.824219 16.203125 45.992188 14.988281 C 45.136719 13.730469 43.976562 12.804688 42.992188 11.667969 C 42.203125 10.746094 41.367188 9.710938 40.800781 8.636719 C 40.144531 7.398438 39.828125 5.992188 38.535156 5.230469 C 37.589844 4.675781 36.648438 4.195312 35.832031 3.449219 C 34.996094 2.6875 33.945312 1.429688 32.710938 1.515625 C 32.140625 1.796875 31.546875 2.011719 30.972656 2.285156 C 30.492188 2.511719 29.808594 2.769531 29.550781 3.273438 C 29.546875 3.34375 29.546875 3.417969 29.550781 3.484375 C 29.816406 3.347656 30.066406 3.203125 30.332031 3.054688 C 30.890625 2.753906 31.453125 2.460938 32.089844 2.324219 C 32.253906 2.292969 32.417969 2.269531 32.589844 2.269531 C 32.679688 2.273438 32.765625 2.277344 32.855469 2.296875 L 32.917969 2.308594 L 32.953125 2.316406 L 32.96875 2.316406 L 32.976562 2.320312 L 33.003906 2.328125 L 33.101562 2.359375 C 33.164062 2.382812 33.226562 2.402344 33.296875 2.429688 C 33.367188 2.457031 33.4375 2.492188 33.511719 2.527344 C 33.65625 2.589844 33.765625 2.667969 33.886719 2.738281 C 34.347656 3.042969 34.707031 3.386719 35.015625 3.710938 C 35.621094 4.363281 36.039062 4.929688 36.335938 5.316406 C 36.621094 5.707031 36.78125 5.925781 36.742188 5.964844 C 36.707031 6.003906 36.472656 5.855469 36.105469 5.523438 C 35.742188 5.195312 35.257812 4.679688 34.628906 4.105469 C 34.3125 3.824219 33.953125 3.527344 33.546875 3.292969 C 33.445312 3.238281 33.335938 3.171875 33.238281 3.136719 C 32.890625 2.992188 32.625 2.9375 32.25 3.027344 C 31.757812 3.148438 31.238281 3.421875 30.707031 3.726562 C 30.445312 3.871094 30.15625 4.042969 29.867188 4.199219 C 29.566406 4.351562 29.300781 4.484375 29.109375 4.660156 C 29.066406 4.703125 29.015625 4.738281 28.984375 4.789062 L 28.929688 4.855469 C 28.921875 4.875 28.914062 4.894531 28.902344 4.910156 C 28.890625 4.933594 28.875 4.929688 28.867188 4.972656 L 28.828125 5.089844 L 28.8125 5.148438 L 28.808594 5.160156 L 28.796875 5.277344 C 28.75 5.574219 28.71875 5.886719 28.679688 6.214844 C 28.648438 6.386719 28.617188 6.558594 28.585938 6.726562 C 28.542969 6.878906 28.5 7.019531 28.457031 7.167969 C 28.34375 7.523438 28.199219 7.753906 28.101562 8.007812 C 28 8.25 27.925781 8.503906 27.9375 8.65625 C 27.9375 8.691406 27.949219 8.71875 27.949219 8.734375 C 27.949219 8.734375 27.945312 8.730469 27.9375 8.734375 C 27.949219 8.75 27.980469 8.777344 28 8.796875 C 28.003906 8.800781 28.003906 8.804688 28.007812 8.804688 C 28.015625 8.8125 28.03125 8.816406 28.042969 8.824219 C 28.066406 8.832031 28.101562 8.839844 28.144531 8.84375 C 28.292969 8.851562 28.480469 8.8125 28.660156 8.75 C 28.96875 8.601562 29.308594 8.359375 29.625 8.007812 C 29.890625 7.726562 30.109375 7.425781 30.296875 7.15625 C 30.300781 7.128906 30.300781 7.101562 30.300781 7.074219 C 30.199219 7.015625 30.105469 6.945312 30.039062 6.871094 C 29.882812 6.699219 29.832031 6.523438 29.816406 6.410156 C 29.8125 6.285156 29.839844 6.21875 29.890625 6.203125 C 29.996094 6.160156 30.148438 6.339844 30.382812 6.4375 C 30.605469 6.535156 30.960938 6.542969 31.351562 6.386719 C 31.75 6.230469 32.027344 5.976562 32.136719 5.765625 C 32.195312 5.660156 32.226562 5.542969 32.25 5.46875 C 32.269531 5.371094 32.289062 5.292969 32.339844 5.277344 C 32.390625 5.261719 32.460938 5.28125 32.539062 5.371094 C 32.621094 5.476562 32.6875 5.644531 32.679688 5.878906 C 32.671875 6.042969 32.613281 6.21875 32.519531 6.386719 C 32.539062 6.394531 32.5625 6.394531 32.578125 6.402344 C 32.742188 6.464844 32.847656 6.558594 32.953125 6.652344 C 33.125 6.8125 33.332031 6.988281 33.542969 7.183594 C 33.765625 7.351562 33.976562 7.511719 34.238281 7.730469 C 34.363281 7.839844 34.5 7.933594 34.625 8.066406 C 34.753906 8.195312 34.882812 8.328125 35.015625 8.460938 L 35.039062 8.488281 L 35.070312 8.523438 L 35.109375 8.578125 L 35.1875 8.683594 C 35.242188 8.75 35.300781 8.824219 35.355469 8.898438 C 35.460938 9.058594 35.578125 9.222656 35.675781 9.398438 C 35.699219 9.4375 35.722656 9.480469 35.746094 9.523438 C 35.953125 9.726562 36.164062 10 36.351562 10.3125 C 36.878906 11.207031 36.992188 12.0625 36.871094 12.085938 C 36.789062 12.105469 36.617188 11.726562 36.34375 11.199219 C 36.359375 11.300781 36.375 11.402344 36.386719 11.5 C 36.410156 11.671875 36.410156 11.835938 36.410156 12 C 36.410156 12.078125 36.414062 12.15625 36.414062 12.230469 C 36.410156 12.304688 36.410156 12.375 36.40625 12.449219 C 36.402344 12.734375 36.390625 13.007812 36.367188 13.257812 C 36.320312 13.753906 36.230469 14.164062 36.113281 14.425781 C 36 14.691406 35.886719 14.8125 35.84375 14.792969 C 35.789062 14.769531 35.800781 14.617188 35.816406 14.355469 C 35.828125 14.203125 35.832031 14.003906 35.828125 13.773438 C 35.71875 14.132812 35.570312 14.539062 35.328125 14.976562 C 35.167969 15.257812 34.96875 15.546875 34.707031 15.820312 C 34.445312 16.085938 34.105469 16.328125 33.734375 16.503906 C 33.058594 16.855469 32.234375 17.183594 31.421875 17.53125 C 31.21875 17.628906 31.015625 17.726562 30.808594 17.820312 C 30.710938 17.871094 30.59375 17.921875 30.511719 17.96875 C 30.453125 18 30.433594 18.015625 30.386719 18.046875 C 30.34375 18.078125 30.300781 18.109375 30.257812 18.140625 C 29.898438 18.414062 29.550781 18.746094 29.226562 19.101562 C 28.902344 19.464844 28.597656 19.859375 28.378906 20.285156 C 28.273438 20.496094 28.191406 20.714844 28.171875 20.910156 C 28.164062 20.960938 28.160156 21.011719 28.164062 21.054688 C 28.242188 20.929688 28.335938 20.8125 28.445312 20.710938 C 28.683594 20.5 28.953125 20.351562 29.238281 20.289062 C 29.382812 20.261719 29.535156 20.253906 29.679688 20.300781 C 29.824219 20.34375 29.949219 20.453125 30.003906 20.566406 C 30.015625 20.585938 30.019531 20.601562 30.027344 20.617188 C 30.089844 20.570312 30.160156 20.523438 30.234375 20.476562 L 30.296875 20.4375 L 30.324219 20.417969 L 30.375 20.390625 L 30.472656 20.34375 L 30.671875 20.25 C 31.269531 19.980469 31.871094 19.84375 32.433594 19.722656 C 32.710938 19.664062 32.988281 19.605469 33.261719 19.550781 C 33.398438 19.519531 33.523438 19.484375 33.65625 19.453125 L 33.777344 19.421875 L 33.878906 19.398438 L 34.082031 19.355469 C 34.355469 19.300781 34.605469 19.226562 34.921875 19.210938 C 35.21875 19.183594 35.519531 19.148438 35.800781 19.175781 C 35.945312 19.183594 36.085938 19.1875 36.226562 19.195312 C 36.363281 19.210938 36.5 19.238281 36.636719 19.257812 C 36.773438 19.285156 36.910156 19.300781 37.042969 19.328125 C 37.171875 19.359375 37.300781 19.390625 37.429688 19.421875 C 37.9375 19.550781 38.414062 19.703125 38.875 19.835938 C 39.101562 19.90625 39.328125 19.964844 39.550781 20.019531 C 39.660156 20.050781 39.773438 20.078125 39.878906 20.109375 L 39.921875 20.117188 L 39.941406 20.125 L 39.953125 20.125 C 39.953125 20.128906 40.023438 20.140625 40.023438 20.140625 L 40.191406 20.167969 C 40.308594 20.191406 40.410156 20.199219 40.507812 20.207031 C 40.609375 20.214844 40.703125 20.226562 40.816406 20.226562 C 41.035156 20.242188 41.25 20.25 41.460938 20.261719 C 41.898438 20.296875 42.335938 20.34375 42.742188 20.507812 C 42.84375 20.539062 42.933594 20.601562 43.03125 20.648438 L 43.207031 20.746094 L 43.207031 20.75 C 43.207031 20.75 43.25 20.777344 43.242188 20.773438 C 43.25 20.777344 43.261719 20.785156 43.261719 20.785156 L 43.3125 20.832031 C 43.445312 20.9375 43.609375 21.101562 43.722656 21.242188 C 43.964844 21.527344 44.148438 21.820312 44.296875 22.097656 C 44.59375 22.65625 44.78125 23.160156 44.929688 23.566406 C 45.210938 24.386719 45.34375 24.839844 45.292969 24.867188 C 45.234375 24.894531 44.992188 24.472656 44.617188 23.699219 C 44.425781 23.316406 44.195312 22.84375 43.878906 22.34375 C 43.722656 22.09375 43.535156 21.84375 43.3125 21.609375 C 43.199219 21.492188 43.105469 21.40625 42.949219 21.285156 L 42.898438 21.25 C 42.890625 21.246094 42.863281 21.234375 42.863281 21.234375 L 42.753906 21.183594 C 42.675781 21.152344 42.613281 21.101562 42.527344 21.085938 C 42.484375 21.070312 42.433594 21.058594 42.390625 21.046875 C 42.855469 21.984375 43.160156 23.027344 43.542969 23.984375 C 44.023438 25.179688 44.46875 26.277344 44.554688 27.546875 C 46.175781 27.632812 47.695312 27.15625 49.285156 26.875 Z M 51.378906 25.910156 C 51.683594 26.582031 51.734375 27.125 50.566406 27.402344 C 48.515625 27.890625 46.296875 28.515625 44.1875 28.292969 C 43.976562 28.273438 43.800781 28.132812 43.800781 27.90625 C 43.785156 26.550781 43.292969 25.421875 42.796875 24.191406 C 42.375 23.132812 42.03125 21.902344 41.445312 20.933594 C 41.441406 20.933594 41.433594 20.933594 41.429688 20.929688 C 41.21875 20.929688 41.007812 20.925781 40.789062 20.925781 C 40.578125 20.921875 40.296875 20.914062 40.082031 20.882812 L 39.914062 20.859375 L 39.828125 20.847656 L 39.71875 20.820312 C 39.605469 20.796875 39.488281 20.769531 39.375 20.742188 C 39.140625 20.691406 38.902344 20.636719 38.671875 20.570312 C 38.195312 20.453125 37.722656 20.308594 37.242188 20.203125 C 37.121094 20.175781 37 20.148438 36.878906 20.121094 C 36.757812 20.09375 36.636719 20.085938 36.515625 20.066406 C 36.394531 20.050781 36.273438 20.027344 36.148438 20.015625 C 36.027344 20.011719 35.902344 20.011719 35.78125 20.003906 C 35.527344 19.984375 35.289062 20.019531 35.046875 20.042969 C 34.816406 20.046875 34.53125 20.132812 34.265625 20.1875 L 33.960938 20.257812 L 33.875 20.277344 C 33.738281 20.3125 33.59375 20.355469 33.453125 20.386719 C 33.175781 20.445312 32.898438 20.507812 32.613281 20.570312 C 32.0625 20.6875 31.523438 20.820312 31.046875 21.035156 L 30.847656 21.128906 L 30.761719 21.171875 C 30.757812 21.171875 30.75 21.179688 30.75 21.179688 L 30.734375 21.1875 L 30.699219 21.210938 C 30.601562 21.273438 30.492188 21.351562 30.378906 21.441406 C 30.15625 21.617188 29.921875 21.800781 29.664062 21.976562 C 29.398438 22.144531 29.121094 22.324219 28.71875 22.390625 C 28.621094 22.414062 28.503906 22.40625 28.390625 22.398438 C 28.332031 22.394531 28.253906 22.371094 28.183594 22.351562 C 28.148438 22.335938 28.117188 22.324219 28.082031 22.3125 C 28.058594 22.300781 28.050781 22.292969 28.035156 22.285156 L 27.941406 22.234375 C 27.90625 22.210938 27.890625 22.203125 27.886719 22.199219 C 27.890625 22.199219 27.894531 22.203125 27.886719 22.195312 L 27.882812 22.195312 L 27.878906 22.1875 L 27.867188 22.179688 L 27.835938 22.15625 L 27.785156 22.109375 C 27.714844 22.050781 27.652344 21.96875 27.589844 21.894531 C 27.585938 21.886719 27.578125 21.878906 27.574219 21.871094 C 27.570312 21.878906 27.566406 21.886719 27.5625 21.894531 C 27.5 21.96875 27.4375 22.050781 27.367188 22.109375 L 27.285156 22.179688 L 27.273438 22.1875 L 27.265625 22.195312 C 27.265625 22.195312 27.253906 22.203125 27.207031 22.234375 L 27.117188 22.285156 C 27.101562 22.292969 27.09375 22.300781 27.070312 22.3125 C 27.035156 22.324219 27.003906 22.335938 26.964844 22.351562 C 26.898438 22.371094 26.820312 22.394531 26.761719 22.398438 C 26.648438 22.40625 26.53125 22.414062 26.433594 22.390625 C 26.03125 22.324219 25.75 22.144531 25.488281 21.976562 C 25.230469 21.800781 24.996094 21.617188 24.769531 21.441406 C 24.660156 21.351562 24.550781 21.273438 24.449219 21.210938 L 24.417969 21.1875 L 24.402344 21.179688 L 24.394531 21.171875 C 24.390625 21.171875 24.304688 21.128906 24.304688 21.128906 L 24.105469 21.035156 C 23.628906 20.820312 23.089844 20.6875 22.535156 20.570312 C 22.253906 20.507812 21.976562 20.445312 21.699219 20.386719 C 21.558594 20.355469 21.414062 20.3125 21.273438 20.277344 L 21.191406 20.257812 L 20.886719 20.1875 C 20.617188 20.132812 20.335938 20.046875 20.105469 20.042969 C 19.863281 20.019531 19.625 19.984375 19.371094 20.003906 C 19.25 20.011719 19.125 20.011719 19.003906 20.015625 C 18.878906 20.027344 18.757812 20.050781 18.636719 20.066406 C 18.515625 20.085938 18.394531 20.09375 18.273438 20.121094 C 18.152344 20.148438 18.03125 20.175781 17.910156 20.203125 C 17.429688 20.308594 16.953125 20.453125 16.480469 20.570312 C 16.25 20.636719 16.011719 20.691406 15.777344 20.742188 C 15.660156 20.769531 15.546875 20.796875 15.433594 20.820312 L 15.324219 20.847656 L 15.066406 20.882812 C 14.855469 20.914062 14.574219 20.921875 14.363281 20.925781 C 14.144531 20.925781 13.929688 20.929688 13.722656 20.929688 C 13.714844 20.933594 13.710938 20.933594 13.707031 20.933594 C 13.117188 21.902344 12.777344 23.132812 12.355469 24.191406 C 11.859375 25.421875 11.367188 26.550781 11.351562 27.90625 C 11.347656 28.132812 11.175781 28.273438 10.964844 28.292969 C 9.496094 28.445312 8.101562 28.148438 6.671875 27.832031 C 5.910156 27.664062 5.074219 27.597656 4.339844 27.332031 C 3.363281 26.976562 3.472656 26.453125 3.78125 25.835938 C 3.792969 25.78125 3.820312 25.722656 3.863281 25.667969 C 3.871094 25.65625 3.875 25.648438 3.882812 25.636719 C 4.007812 25.40625 4.144531 25.160156 4.253906 24.90625 C 4.285156 24.824219 4.339844 24.773438 4.394531 24.742188 C 4.886719 23.59375 5.058594 22.164062 5.472656 21.078125 C 6.011719 19.6875 6.625 18.296875 7.25 16.9375 C 7.871094 15.597656 8.5625 14.304688 9.574219 13.214844 C 10.589844 12.121094 11.703125 11.140625 12.558594 9.910156 C 13.394531 8.703125 13.925781 7.460938 14.644531 6.203125 C 15.269531 5.105469 16.167969 4.601562 17.246094 3.988281 C 18.851562 3.078125 20.449219 0.527344 22.5 0.746094 C 22.554688 0.75 22.601562 0.765625 22.644531 0.789062 C 22.691406 0.792969 22.742188 0.804688 22.792969 0.832031 C 23.863281 1.371094 25.707031 1.722656 26.28125 2.902344 C 26.292969 2.929688 26.304688 2.953125 26.308594 2.980469 C 26.335938 3.035156 26.359375 3.097656 26.367188 3.160156 C 26.394531 3.40625 26.367188 3.652344 26.332031 3.894531 C 26.410156 3.945312 26.488281 4.003906 26.5625 4.074219 C 26.636719 4.144531 26.714844 4.210938 26.777344 4.300781 L 26.875 4.425781 C 26.90625 4.480469 26.933594 4.535156 26.964844 4.589844 C 26.988281 4.640625 27.027344 4.710938 27.035156 4.746094 L 27.070312 4.863281 L 27.085938 4.925781 L 27.089844 4.9375 L 27.09375 4.945312 L 27.105469 4.996094 L 27.109375 5.027344 L 27.125 5.15625 C 27.175781 5.496094 27.199219 5.816406 27.234375 6.113281 C 27.253906 6.246094 27.273438 6.382812 27.292969 6.515625 C 27.332031 6.664062 27.375 6.808594 27.410156 6.953125 C 27.445312 7.082031 27.507812 7.230469 27.574219 7.386719 C 27.640625 7.230469 27.707031 7.082031 27.738281 6.953125 C 27.777344 6.808594 27.820312 6.664062 27.859375 6.515625 C 27.878906 6.382812 27.894531 6.246094 27.917969 6.113281 C 27.949219 5.816406 27.972656 5.496094 28.027344 5.15625 L 28.042969 5.027344 L 28.046875 4.996094 L 28.058594 4.945312 L 28.0625 4.9375 L 28.066406 4.925781 L 28.082031 4.863281 L 28.117188 4.746094 C 28.125 4.710938 28.160156 4.640625 28.1875 4.589844 C 28.214844 4.535156 28.246094 4.480469 28.273438 4.425781 L 28.375 4.300781 C 28.433594 4.210938 28.511719 4.144531 28.589844 4.074219 C 28.664062 4.003906 28.742188 3.945312 28.820312 3.894531 C 28.785156 3.652344 28.757812 3.40625 28.785156 3.160156 C 28.796875 3.097656 28.8125 3.035156 28.839844 2.980469 C 28.847656 2.953125 28.859375 2.929688 28.867188 2.902344 C 29.445312 1.722656 31.285156 1.371094 32.359375 0.832031 C 32.410156 0.804688 32.460938 0.792969 32.507812 0.789062 C 32.550781 0.765625 32.597656 0.75 32.648438 0.746094 C 33.582031 0.648438 34.394531 1.175781 35.082031 1.753906 C 36.132812 2.628906 37.042969 3.507812 38.25 4.179688 C 39.328125 4.777344 40.152344 5.386719 40.675781 6.539062 C 41.222656 7.75 41.816406 8.828125 42.59375 9.910156 C 43.554688 11.246094 44.8125 12.265625 45.855469 13.527344 C 46.804688 14.683594 47.492188 15.980469 48.085938 17.34375 C 48.675781 18.707031 49.359375 20.070312 49.816406 21.484375 C 50.128906 22.4375 50.324219 23.714844 50.761719 24.742188 C 50.816406 24.777344 50.867188 24.828125 50.898438 24.90625 C 50.996094 25.132812 51.105469 25.351562 51.210938 25.558594 C 51.238281 25.597656 51.261719 25.632812 51.289062 25.667969 C 51.351562 25.746094 51.375 25.828125 51.378906 25.910156 " fill-opacity="1" fill-rule="nonzero"/></g><path fill="#f5eadc" d="M 27.886719 22.195312 L 27.886719 22.199219 C 27.882812 22.195312 27.882812 22.195312 27.882812 22.195312 L 27.886719 22.195312 " fill-opacity="1" fill-rule="nonzero"/><g fill="#f5eadc" fill-opacity="1"><g transform="translate(24.346455, 12.289142)"><g><path d="M 1.078125 -2 C 1.097656 -1.957031 1.109375 -1.925781 1.109375 -1.90625 C 1.109375 -1.875 1.09375 -1.847656 1.0625 -1.828125 C 1.0625 -1.816406 1.0625 -1.8125 1.0625 -1.8125 C 1.082031 -1.726562 1.085938 -1.644531 1.078125 -1.5625 C 1.066406 -1.488281 1.054688 -1.421875 1.046875 -1.359375 C 1.140625 -1.523438 1.21875 -1.644531 1.28125 -1.71875 C 1.394531 -1.882812 1.503906 -2.003906 1.609375 -2.078125 C 1.648438 -2.097656 1.691406 -2.113281 1.734375 -2.125 C 1.785156 -2.132812 1.832031 -2.132812 1.875 -2.125 C 1.925781 -2.113281 1.96875 -2.09375 2 -2.0625 C 2.03125 -2.039062 2.046875 -2 2.046875 -1.9375 C 1.992188 -1.582031 1.9375 -1.25 1.875 -0.9375 C 1.8125 -0.625 1.734375 -0.328125 1.640625 -0.046875 C 1.617188 0.015625 1.566406 0.0625 1.484375 0.09375 C 1.390625 0.113281 1.3125 0.113281 1.25 0.09375 C 1.164062 0.0703125 1.128906 0.03125 1.140625 -0.03125 L 1.140625 -0.109375 C 1.148438 -0.148438 1.15625 -0.175781 1.15625 -0.1875 C 1.15625 -0.207031 1.15625 -0.21875 1.15625 -0.21875 C 1.15625 -0.269531 1.160156 -0.316406 1.171875 -0.359375 C 1.191406 -0.398438 1.203125 -0.429688 1.203125 -0.453125 C 1.210938 -0.484375 1.21875 -0.507812 1.21875 -0.53125 C 1.226562 -0.550781 1.234375 -0.566406 1.234375 -0.578125 C 1.160156 -0.484375 1.109375 -0.425781 1.078125 -0.40625 C 1.003906 -0.351562 0.921875 -0.332031 0.828125 -0.34375 C 0.765625 -0.34375 0.726562 -0.351562 0.71875 -0.375 C 0.707031 -0.425781 0.695312 -0.457031 0.6875 -0.46875 C 0.675781 -0.488281 0.664062 -0.515625 0.65625 -0.546875 C 0.601562 -0.335938 0.554688 -0.1875 0.515625 -0.09375 C 0.492188 -0.0625 0.476562 -0.03125 0.46875 0 C 0.4375 0.0507812 0.375 0.09375 0.28125 0.125 C 0.195312 0.144531 0.113281 0.140625 0.03125 0.109375 C -0.0390625 0.0859375 -0.078125 0.046875 -0.078125 -0.015625 C -0.078125 -0.0859375 -0.0625 -0.171875 -0.03125 -0.265625 C -0.0078125 -0.367188 0.015625 -0.476562 0.046875 -0.59375 C 0.140625 -0.945312 0.203125 -1.175781 0.234375 -1.28125 C 0.273438 -1.382812 0.3125 -1.46875 0.34375 -1.53125 C 0.40625 -1.664062 0.460938 -1.769531 0.515625 -1.84375 C 0.578125 -1.957031 0.671875 -2.023438 0.796875 -2.046875 C 0.898438 -2.066406 0.992188 -2.050781 1.078125 -2 Z M 1.078125 -2 "/></g></g></g><g fill="#f5eadc" fill-opacity="1"><g transform="translate(26.736012, 12.289142)"><g><path d="M 0.5625 -1.828125 C 0.675781 -1.953125 0.800781 -2.03125 0.9375 -2.0625 C 1.039062 -2.09375 1.132812 -2.09375 1.21875 -2.0625 C 1.28125 -2.132812 1.367188 -2.160156 1.484375 -2.140625 C 1.578125 -2.117188 1.660156 -2.0625 1.734375 -1.96875 C 1.734375 -1.957031 1.738281 -1.9375 1.75 -1.90625 C 1.769531 -1.882812 1.785156 -1.859375 1.796875 -1.828125 C 1.867188 -1.640625 1.875 -1.394531 1.8125 -1.09375 C 1.726562 -0.707031 1.578125 -0.382812 1.359375 -0.125 C 1.296875 -0.0390625 1.222656 0.0234375 1.140625 0.078125 C 1.003906 0.171875 0.847656 0.210938 0.671875 0.203125 C 0.554688 0.203125 0.457031 0.175781 0.375 0.125 C 0.0703125 -0.03125 -0.0234375 -0.347656 0.078125 -0.828125 C 0.171875 -1.222656 0.332031 -1.554688 0.5625 -1.828125 Z M 0.59375 -0.359375 L 0.59375 -0.3125 C 0.601562 -0.257812 0.617188 -0.21875 0.640625 -0.1875 C 0.671875 -0.15625 0.695312 -0.132812 0.71875 -0.125 C 0.726562 -0.144531 0.742188 -0.160156 0.765625 -0.171875 C 0.785156 -0.179688 0.800781 -0.195312 0.8125 -0.21875 C 0.9375 -0.375 1.035156 -0.570312 1.109375 -0.8125 C 1.179688 -1.0625 1.207031 -1.296875 1.1875 -1.515625 C 1.113281 -1.421875 1.035156 -1.3125 0.953125 -1.1875 C 0.878906 -1.070312 0.816406 -0.972656 0.765625 -0.890625 C 0.660156 -0.691406 0.601562 -0.515625 0.59375 -0.359375 Z M 0.59375 -0.359375 "/></g></g></g><g fill="#f5eadc" fill-opacity="1"><g transform="translate(28.982582, 12.289142)"><g><path d="M 1.09375 -2.078125 C 1.351562 -2.128906 1.554688 -2.097656 1.703125 -1.984375 C 1.773438 -1.921875 1.820312 -1.832031 1.84375 -1.71875 C 1.863281 -1.613281 1.851562 -1.492188 1.8125 -1.359375 C 1.789062 -1.296875 1.753906 -1.25 1.703125 -1.21875 C 1.648438 -1.195312 1.597656 -1.179688 1.546875 -1.171875 C 1.492188 -1.171875 1.445312 -1.175781 1.40625 -1.1875 C 1.363281 -1.207031 1.34375 -1.234375 1.34375 -1.265625 L 1.3125 -1.328125 C 1.269531 -1.390625 1.195312 -1.394531 1.09375 -1.34375 C 1 -1.300781 0.90625 -1.226562 0.8125 -1.125 C 0.707031 -1.007812 0.640625 -0.910156 0.609375 -0.828125 C 0.578125 -0.722656 0.5625 -0.65625 0.5625 -0.625 C 0.5625 -0.5625 0.585938 -0.5 0.640625 -0.4375 C 0.710938 -0.394531 0.785156 -0.375 0.859375 -0.375 C 0.941406 -0.375 1.015625 -0.390625 1.078125 -0.421875 C 1.140625 -0.453125 1.1875 -0.488281 1.21875 -0.53125 C 1.257812 -0.570312 1.28125 -0.597656 1.28125 -0.609375 C 1.289062 -0.617188 1.296875 -0.628906 1.296875 -0.640625 C 1.304688 -0.648438 1.3125 -0.660156 1.3125 -0.671875 C 1.300781 -0.671875 1.300781 -0.671875 1.3125 -0.671875 C 1.332031 -0.679688 1.335938 -0.679688 1.328125 -0.671875 C 1.316406 -0.671875 1.320312 -0.671875 1.34375 -0.671875 L 1.359375 -0.671875 C 1.265625 -0.585938 1.175781 -0.570312 1.09375 -0.625 C 1.0625 -0.644531 1.03125 -0.664062 1 -0.6875 C 0.976562 -0.707031 0.957031 -0.71875 0.9375 -0.71875 C 0.894531 -0.738281 0.882812 -0.78125 0.90625 -0.84375 C 0.914062 -0.875 0.929688 -0.898438 0.953125 -0.921875 C 0.984375 -0.941406 1.015625 -0.957031 1.046875 -0.96875 C 1.234375 -1.050781 1.40625 -1.066406 1.5625 -1.015625 C 1.625 -1.003906 1.671875 -0.96875 1.703125 -0.90625 C 1.734375 -0.851562 1.742188 -0.789062 1.734375 -0.71875 C 1.734375 -0.65625 1.71875 -0.585938 1.6875 -0.515625 C 1.664062 -0.441406 1.640625 -0.382812 1.609375 -0.34375 C 1.578125 -0.300781 1.53125 -0.25 1.46875 -0.1875 C 1.414062 -0.125 1.347656 -0.0664062 1.265625 -0.015625 C 1.054688 0.117188 0.832031 0.179688 0.59375 0.171875 C 0.25 0.171875 0.046875 0.03125 -0.015625 -0.25 C -0.0234375 -0.332031 -0.03125 -0.429688 -0.03125 -0.546875 C -0.0195312 -0.859375 0.0703125 -1.15625 0.25 -1.4375 C 0.332031 -1.570312 0.441406 -1.703125 0.578125 -1.828125 C 0.671875 -1.898438 0.769531 -1.957031 0.875 -2 C 0.9375 -2.03125 1.007812 -2.054688 1.09375 -2.078125 Z M 1.09375 -2.078125 "/></g></g></g><g fill="#f5eadc" fill-opacity="1"><g transform="translate(22.592049, 15.268052)"><g><path d="M 0.515625 -0.78125 C 0.453125 -0.800781 0.421875 -0.84375 0.421875 -0.90625 C 0.441406 -0.976562 0.488281 -1.050781 0.5625 -1.125 C 0.59375 -1.15625 0.632812 -1.191406 0.6875 -1.234375 C 0.738281 -1.285156 0.789062 -1.335938 0.84375 -1.390625 C 0.976562 -1.523438 1.054688 -1.628906 1.078125 -1.703125 C 0.992188 -1.671875 0.925781 -1.644531 0.875 -1.625 C 0.820312 -1.613281 0.773438 -1.601562 0.734375 -1.59375 C 0.691406 -1.582031 0.65625 -1.578125 0.625 -1.578125 C 0.59375 -1.585938 0.566406 -1.601562 0.546875 -1.625 C 0.535156 -1.644531 0.523438 -1.671875 0.515625 -1.703125 C 0.503906 -1.734375 0.5 -1.765625 0.5 -1.796875 C 0.5 -1.867188 0.53125 -1.914062 0.59375 -1.9375 C 0.613281 -1.9375 0.628906 -1.941406 0.640625 -1.953125 C 0.648438 -1.960938 0.660156 -1.976562 0.671875 -2 C 0.703125 -2.039062 0.734375 -2.066406 0.765625 -2.078125 C 0.816406 -2.085938 0.867188 -2.101562 0.921875 -2.125 C 0.984375 -2.144531 1.046875 -2.164062 1.109375 -2.1875 C 1.304688 -2.238281 1.46875 -2.207031 1.59375 -2.09375 C 1.675781 -2 1.710938 -1.878906 1.703125 -1.734375 C 1.691406 -1.648438 1.660156 -1.5625 1.609375 -1.46875 C 1.578125 -1.40625 1.535156 -1.351562 1.484375 -1.3125 C 1.441406 -1.269531 1.398438 -1.234375 1.359375 -1.203125 C 1.328125 -1.179688 1.285156 -1.15625 1.234375 -1.125 C 1.335938 -1.113281 1.410156 -1.078125 1.453125 -1.015625 C 1.503906 -0.953125 1.535156 -0.875 1.546875 -0.78125 C 1.554688 -0.601562 1.503906 -0.410156 1.390625 -0.203125 C 1.242188 0.0351562 0.9375 0.175781 0.46875 0.21875 C 0.34375 0.226562 0.234375 0.210938 0.140625 0.171875 C 0.0546875 0.140625 0.0078125 0.0859375 0 0.015625 C -0.0195312 -0.0234375 -0.0195312 -0.0664062 0 -0.109375 C 0.0078125 -0.160156 0.03125 -0.203125 0.0625 -0.234375 C 0.09375 -0.265625 0.128906 -0.285156 0.171875 -0.296875 C 0.210938 -0.316406 0.25 -0.320312 0.28125 -0.3125 C 0.382812 -0.289062 0.457031 -0.285156 0.5 -0.296875 C 0.5625 -0.304688 0.648438 -0.335938 0.765625 -0.390625 C 0.796875 -0.398438 0.832031 -0.425781 0.875 -0.46875 C 0.914062 -0.507812 0.945312 -0.546875 0.96875 -0.578125 C 0.988281 -0.617188 0.992188 -0.65625 0.984375 -0.6875 C 0.984375 -0.71875 0.960938 -0.734375 0.921875 -0.734375 C 0.878906 -0.734375 0.820312 -0.734375 0.75 -0.734375 C 0.6875 -0.734375 0.609375 -0.75 0.515625 -0.78125 Z M 0.515625 -0.78125 "/></g></g></g><g fill="#f5eadc" fill-opacity="1"><g transform="translate(24.723126, 15.268052)"><g><path d="M 0.515625 -0.78125 C 0.453125 -0.800781 0.421875 -0.84375 0.421875 -0.90625 C 0.441406 -0.976562 0.488281 -1.050781 0.5625 -1.125 C 0.59375 -1.15625 0.632812 -1.191406 0.6875 -1.234375 C 0.738281 -1.285156 0.789062 -1.335938 0.84375 -1.390625 C 0.976562 -1.523438 1.054688 -1.628906 1.078125 -1.703125 C 0.992188 -1.671875 0.925781 -1.644531 0.875 -1.625 C 0.820312 -1.613281 0.773438 -1.601562 0.734375 -1.59375 C 0.691406 -1.582031 0.65625 -1.578125 0.625 -1.578125 C 0.59375 -1.585938 0.566406 -1.601562 0.546875 -1.625 C 0.535156 -1.644531 0.523438 -1.671875 0.515625 -1.703125 C 0.503906 -1.734375 0.5 -1.765625 0.5 -1.796875 C 0.5 -1.867188 0.53125 -1.914062 0.59375 -1.9375 C 0.613281 -1.9375 0.628906 -1.941406 0.640625 -1.953125 C 0.648438 -1.960938 0.660156 -1.976562 0.671875 -2 C 0.703125 -2.039062 0.734375 -2.066406 0.765625 -2.078125 C 0.816406 -2.085938 0.867188 -2.101562 0.921875 -2.125 C 0.984375 -2.144531 1.046875 -2.164062 1.109375 -2.1875 C 1.304688 -2.238281 1.46875 -2.207031 1.59375 -2.09375 C 1.675781 -2 1.710938 -1.878906 1.703125 -1.734375 C 1.691406 -1.648438 1.660156 -1.5625 1.609375 -1.46875 C 1.578125 -1.40625 1.535156 -1.351562 1.484375 -1.3125 C 1.441406 -1.269531 1.398438 -1.234375 1.359375 -1.203125 C 1.328125 -1.179688 1.285156 -1.15625 1.234375 -1.125 C 1.335938 -1.113281 1.410156 -1.078125 1.453125 -1.015625 C 1.503906 -0.953125 1.535156 -0.875 1.546875 -0.78125 C 1.554688 -0.601562 1.503906 -0.410156 1.390625 -0.203125 C 1.242188 0.0351562 0.9375 0.175781 0.46875 0.21875 C 0.34375 0.226562 0.234375 0.210938 0.140625 0.171875 C 0.0546875 0.140625 0.0078125 0.0859375 0 0.015625 C -0.0195312 -0.0234375 -0.0195312 -0.0664062 0 -0.109375 C 0.0078125 -0.160156 0.03125 -0.203125 0.0625 -0.234375 C 0.09375 -0.265625 0.128906 -0.285156 0.171875 -0.296875 C 0.210938 -0.316406 0.25 -0.320312 0.28125 -0.3125 C 0.382812 -0.289062 0.457031 -0.285156 0.5 -0.296875 C 0.5625 -0.304688 0.648438 -0.335938 0.765625 -0.390625 C 0.796875 -0.398438 0.832031 -0.425781 0.875 -0.46875 C 0.914062 -0.507812 0.945312 -0.546875 0.96875 -0.578125 C 0.988281 -0.617188 0.992188 -0.65625 0.984375 -0.6875 C 0.984375 -0.71875 0.960938 -0.734375 0.921875 -0.734375 C 0.878906 -0.734375 0.820312 -0.734375 0.75 -0.734375 C 0.6875 -0.734375 0.609375 -0.75 0.515625 -0.78125 Z M 0.515625 -0.78125 "/></g></g></g><g fill="#f5eadc" fill-opacity="1"><g transform="translate(26.854204, 15.268052)"><g><path d="M 0.9375 -1.59375 C 0.84375 -1.59375 0.75 -1.59375 0.65625 -1.59375 C 0.5625 -1.59375 0.484375 -1.597656 0.421875 -1.609375 C 0.367188 -1.609375 0.320312 -1.613281 0.28125 -1.625 C 0.238281 -1.632812 0.210938 -1.660156 0.203125 -1.703125 C 0.191406 -1.742188 0.191406 -1.785156 0.203125 -1.828125 C 0.222656 -1.878906 0.253906 -1.925781 0.296875 -1.96875 C 0.347656 -2.007812 0.414062 -2.03125 0.5 -2.03125 C 0.582031 -2.039062 0.660156 -2.050781 0.734375 -2.0625 C 0.816406 -2.070312 0.890625 -2.082031 0.953125 -2.09375 C 1.015625 -2.101562 1.070312 -2.113281 1.125 -2.125 C 1.175781 -2.132812 1.222656 -2.140625 1.265625 -2.140625 C 1.316406 -2.148438 1.359375 -2.15625 1.390625 -2.15625 C 1.429688 -2.164062 1.46875 -2.171875 1.5 -2.171875 C 1.570312 -2.160156 1.617188 -2.117188 1.640625 -2.046875 L 1.625 -1.984375 C 1.707031 -1.953125 1.765625 -1.90625 1.796875 -1.84375 C 1.828125 -1.769531 1.804688 -1.695312 1.734375 -1.625 C 1.585938 -1.457031 1.410156 -1.203125 1.203125 -0.859375 C 1.117188 -0.722656 1.03125 -0.582031 0.9375 -0.4375 C 0.851562 -0.289062 0.78125 -0.175781 0.71875 -0.09375 C 0.65625 0 0.597656 0.0703125 0.546875 0.125 C 0.546875 0.125 0.539062 0.128906 0.53125 0.140625 C 0.53125 0.140625 0.523438 0.140625 0.515625 0.140625 C 0.515625 0.148438 0.507812 0.160156 0.5 0.171875 C 0.5 0.179688 0.5 0.1875 0.5 0.1875 C 0.457031 0.226562 0.410156 0.25 0.359375 0.25 C 0.304688 0.257812 0.25 0.257812 0.1875 0.25 C 0.125 0.238281 0.078125 0.210938 0.046875 0.171875 C 0.0234375 0.140625 0.015625 0.109375 0.015625 0.078125 C 0.015625 0.046875 0.0195312 0.0195312 0.03125 0 C 0.0507812 -0.0195312 0.0703125 -0.0390625 0.09375 -0.0625 C 0.113281 -0.09375 0.132812 -0.125 0.15625 -0.15625 C 0.257812 -0.332031 0.335938 -0.484375 0.390625 -0.609375 C 0.453125 -0.734375 0.507812 -0.847656 0.5625 -0.953125 C 0.675781 -1.203125 0.785156 -1.390625 0.890625 -1.515625 Z M 0.9375 -1.59375 "/></g></g></g><g fill="#f5eadc" fill-opacity="1"><g transform="translate(28.850543, 15.268052)"><g><path d="M 0.453125 -1.84375 C 0.472656 -1.894531 0.515625 -1.945312 0.578125 -2 C 0.640625 -2.050781 0.707031 -2.09375 0.78125 -2.125 C 0.957031 -2.207031 1.113281 -2.21875 1.25 -2.15625 C 1.320312 -2.125 1.359375 -2.101562 1.359375 -2.09375 C 1.367188 -2.082031 1.375 -2.066406 1.375 -2.046875 C 1.375 -2.035156 1.375 -2.019531 1.375 -2 C 1.539062 -2.0625 1.660156 -2.015625 1.734375 -1.859375 C 1.796875 -1.710938 1.8125 -1.519531 1.78125 -1.28125 C 1.75 -1.039062 1.6875 -0.832031 1.59375 -0.65625 C 1.519531 -0.46875 1.410156 -0.285156 1.265625 -0.109375 C 1.210938 -0.046875 1.160156 0 1.109375 0.03125 C 1.066406 0.0703125 1.035156 0.09375 1.015625 0.09375 C 0.972656 0.09375 0.9375 0.0976562 0.90625 0.109375 C 0.863281 0.117188 0.832031 0.125 0.8125 0.125 C 0.800781 0.125 0.796875 0.125 0.796875 0.125 C 0.796875 0.132812 0.796875 0.140625 0.796875 0.140625 L 0.703125 0.171875 C 0.703125 0.203125 0.675781 0.222656 0.625 0.234375 C 0.582031 0.242188 0.535156 0.242188 0.484375 0.234375 C 0.429688 0.222656 0.375 0.207031 0.3125 0.1875 C 0.257812 0.164062 0.21875 0.128906 0.1875 0.078125 C 0.144531 -0.015625 0.117188 -0.09375 0.109375 -0.15625 C 0.0664062 -0.351562 0.0664062 -0.601562 0.109375 -0.90625 C 0.148438 -1.125 0.210938 -1.332031 0.296875 -1.53125 C 0.335938 -1.625 0.390625 -1.726562 0.453125 -1.84375 Z M 0.953125 -1.53125 C 0.816406 -1.257812 0.726562 -0.96875 0.6875 -0.65625 C 0.675781 -0.550781 0.671875 -0.453125 0.671875 -0.359375 L 0.6875 -0.359375 C 0.882812 -0.648438 1.03125 -0.96875 1.125 -1.3125 C 1.15625 -1.4375 1.171875 -1.53125 1.171875 -1.59375 C 1.171875 -1.664062 1.160156 -1.710938 1.140625 -1.734375 C 1.128906 -1.722656 1.125 -1.71875 1.125 -1.71875 C 1.125 -1.71875 1.125 -1.722656 1.125 -1.734375 C 1.113281 -1.734375 1.101562 -1.734375 1.09375 -1.734375 C 1.0625 -1.703125 1.035156 -1.664062 1.015625 -1.625 Z M 0.953125 -1.53125 "/></g></g></g><g fill="#f5eadc" fill-opacity="1"><g transform="translate(30.989872, 15.268052)"><g><path d="M 0.9375 -1.59375 C 0.84375 -1.59375 0.75 -1.59375 0.65625 -1.59375 C 0.5625 -1.59375 0.484375 -1.597656 0.421875 -1.609375 C 0.367188 -1.609375 0.320312 -1.613281 0.28125 -1.625 C 0.238281 -1.632812 0.210938 -1.660156 0.203125 -1.703125 C 0.191406 -1.742188 0.191406 -1.785156 0.203125 -1.828125 C 0.222656 -1.878906 0.253906 -1.925781 0.296875 -1.96875 C 0.347656 -2.007812 0.414062 -2.03125 0.5 -2.03125 C 0.582031 -2.039062 0.660156 -2.050781 0.734375 -2.0625 C 0.816406 -2.070312 0.890625 -2.082031 0.953125 -2.09375 C 1.015625 -2.101562 1.070312 -2.113281 1.125 -2.125 C 1.175781 -2.132812 1.222656 -2.140625 1.265625 -2.140625 C 1.316406 -2.148438 1.359375 -2.15625 1.390625 -2.15625 C 1.429688 -2.164062 1.46875 -2.171875 1.5 -2.171875 C 1.570312 -2.160156 1.617188 -2.117188 1.640625 -2.046875 L 1.625 -1.984375 C 1.707031 -1.953125 1.765625 -1.90625 1.796875 -1.84375 C 1.828125 -1.769531 1.804688 -1.695312 1.734375 -1.625 C 1.585938 -1.457031 1.410156 -1.203125 1.203125 -0.859375 C 1.117188 -0.722656 1.03125 -0.582031 0.9375 -0.4375 C 0.851562 -0.289062 0.78125 -0.175781 0.71875 -0.09375 C 0.65625 0 0.597656 0.0703125 0.546875 0.125 C 0.546875 0.125 0.539062 0.128906 0.53125 0.140625 C 0.53125 0.140625 0.523438 0.140625 0.515625 0.140625 C 0.515625 0.148438 0.507812 0.160156 0.5 0.171875 C 0.5 0.179688 0.5 0.1875 0.5 0.1875 C 0.457031 0.226562 0.410156 0.25 0.359375 0.25 C 0.304688 0.257812 0.25 0.257812 0.1875 0.25 C 0.125 0.238281 0.078125 0.210938 0.046875 0.171875 C 0.0234375 0.140625 0.015625 0.109375 0.015625 0.078125 C 0.015625 0.046875 0.0195312 0.0195312 0.03125 0 C 0.0507812 -0.0195312 0.0703125 -0.0390625 0.09375 -0.0625 C 0.113281 -0.09375 0.132812 -0.125 0.15625 -0.15625 C 0.257812 -0.332031 0.335938 -0.484375 0.390625 -0.609375 C 0.453125 -0.734375 0.507812 -0.847656 0.5625 -0.953125 C 0.675781 -1.203125 0.785156 -1.390625 0.890625 -1.515625 Z M 0.9375 -1.59375 "/></g></g></g><g fill="#f5eadc" fill-opacity="1"><g transform="translate(63.676632, 13.595414)"><g><path d="M 13.921875 -11.53125 L 13.921875 0 L 11.625 0 L 11.625 -5.328125 C 11.625 -7.160156 11.632812 -8.476562 11.65625 -9.28125 C 11.34375 -7.9375 10.984375 -6.625 10.578125 -5.34375 L 8.96875 0 L 6.453125 0 L 4.796875 -5.359375 C 4.367188 -6.773438 4.023438 -8.078125 3.765625 -9.265625 C 3.785156 -8.460938 3.796875 -7.148438 3.796875 -5.328125 L 3.796875 0 L 1.484375 0 L 1.484375 -11.53125 L 5.125 -11.53125 L 7.734375 -2.125 L 10.34375 -11.53125 Z M 13.921875 -11.53125 "/></g></g></g><g fill="#f5eadc" fill-opacity="1"><g transform="translate(79.54596, 13.595414)"><g><path d="M 3.796875 0 L 1.484375 0 L 1.484375 -11.53125 L 3.796875 -11.53125 Z M 3.796875 0 "/></g></g></g><g fill="#f5eadc" fill-opacity="1"><g transform="translate(85.298505, 13.595414)"><g><path d="M 9.8125 -1.921875 L 9.8125 0 L 1.484375 0 L 1.484375 -11.53125 L 3.796875 -11.53125 L 3.796875 -1.921875 Z M 9.8125 -1.921875 "/></g></g></g><g fill="#f5eadc" fill-opacity="1"><g transform="translate(96.268307, 13.595414)"><g><path d="M 9.8125 -1.921875 L 9.8125 0 L 1.484375 0 L 1.484375 -11.53125 L 3.796875 -11.53125 L 3.796875 -1.921875 Z M 9.8125 -1.921875 "/></g></g></g><g fill="#f5eadc" fill-opacity="1"><g transform="translate(107.23811, 13.595414)"><g><path d="M 9.8125 -1.828125 L 9.8125 0 L 1.484375 0 L 1.484375 -11.53125 L 9.640625 -11.53125 L 9.640625 -9.734375 L 3.796875 -9.734375 L 3.796875 -6.6875 L 9.234375 -6.6875 L 9.234375 -4.859375 L 3.796875 -4.859375 L 3.796875 -1.828125 Z M 9.8125 -1.828125 "/></g></g></g><g fill="#f5eadc" fill-opacity="1"><g transform="translate(118.408576, 13.595414)"><g><path d="M 11.625 0 L 8.453125 0 L 3.71875 -8.765625 C 3.769531 -7.710938 3.796875 -6.53125 3.796875 -5.21875 L 3.796875 0 L 1.484375 0 L 1.484375 -11.53125 L 4.546875 -11.53125 L 9.390625 -2.609375 C 9.335938 -3.640625 9.3125 -4.847656 9.3125 -6.234375 L 9.3125 -11.53125 L 11.609375 -11.53125 Z M 11.625 0 "/></g></g></g><g fill="#f5eadc" fill-opacity="1"><g transform="translate(131.987006, 13.595414)"><g><path d="M 11.625 0 L 8.453125 0 L 3.71875 -8.765625 C 3.769531 -7.710938 3.796875 -6.53125 3.796875 -5.21875 L 3.796875 0 L 1.484375 0 L 1.484375 -11.53125 L 4.546875 -11.53125 L 9.390625 -2.609375 C 9.335938 -3.640625 9.3125 -4.847656 9.3125 -6.234375 L 9.3125 -11.53125 L 11.609375 -11.53125 Z M 11.625 0 "/></g></g></g><g fill="#f5eadc" fill-opacity="1"><g transform="translate(145.565436, 13.595414)"><g><path d="M 3.796875 0 L 1.484375 0 L 1.484375 -11.53125 L 3.796875 -11.53125 Z M 3.796875 0 "/></g></g></g><g fill="#f5eadc" fill-opacity="1"><g transform="translate(151.317983, 13.595414)"><g><path d="M 7.734375 -3.484375 L 3.859375 -3.484375 L 2.703125 0 L 0.25 0 L 4.40625 -11.53125 L 7.3125 -11.53125 L 11.390625 0 L 8.875 0 Z M 5.8125 -9.5625 L 4.453125 -5.296875 L 7.15625 -5.296875 Z M 5.8125 -9.5625 "/></g></g></g><g fill="#f5eadc" fill-opacity="1"><g transform="translate(163.491755, 13.595414)"><g><path d="M 9.8125 -1.921875 L 9.8125 0 L 1.484375 0 L 1.484375 -11.53125 L 3.796875 -11.53125 L 3.796875 -1.921875 Z M 9.8125 -1.921875 "/></g></g></g><g fill="#f5eadc" fill-opacity="1"><g transform="translate(174.461557, 13.595414)"><g><path d="M 5.3125 -11.765625 C 6.632812 -11.765625 7.640625 -11.4375 8.328125 -10.78125 C 9.023438 -10.125 9.441406 -9.242188 9.578125 -8.140625 L 7.21875 -8.140625 C 7.15625 -8.742188 6.957031 -9.210938 6.625 -9.546875 C 6.289062 -9.878906 5.828125 -10.046875 5.234375 -10.046875 C 4.753906 -10.046875 4.363281 -9.925781 4.0625 -9.6875 C 3.757812 -9.457031 3.609375 -9.117188 3.609375 -8.671875 C 3.609375 -8.179688 3.789062 -7.796875 4.15625 -7.515625 C 4.519531 -7.242188 5.15625 -7 6.0625 -6.78125 C 7.320312 -6.5 8.25 -6.0625 8.84375 -5.46875 C 9.445312 -4.875 9.75 -4.109375 9.75 -3.171875 C 9.75 -2.128906 9.332031 -1.300781 8.5 -0.6875 C 7.675781 -0.0703125 6.671875 0.234375 5.484375 0.234375 C 4.078125 0.234375 2.957031 -0.0703125 2.125 -0.6875 C 1.289062 -1.3125 0.816406 -2.21875 0.703125 -3.40625 L 3.0625 -3.40625 C 3.1875 -2.789062 3.460938 -2.316406 3.890625 -1.984375 C 4.328125 -1.648438 4.847656 -1.484375 5.453125 -1.484375 C 5.984375 -1.484375 6.429688 -1.617188 6.796875 -1.890625 C 7.160156 -2.160156 7.34375 -2.507812 7.34375 -2.9375 C 7.34375 -3.425781 7.164062 -3.820312 6.8125 -4.125 C 6.457031 -4.425781 5.863281 -4.675781 5.03125 -4.875 C 3.738281 -5.1875 2.773438 -5.601562 2.140625 -6.125 C 1.503906 -6.644531 1.1875 -7.398438 1.1875 -8.390625 C 1.1875 -9.421875 1.585938 -10.238281 2.390625 -10.84375 C 3.191406 -11.457031 4.164062 -11.765625 5.3125 -11.765625 Z M 5.3125 -11.765625 "/></g></g></g><g fill="#f5eadc" fill-opacity="1"><g transform="translate(63.676632, 27.47415)"><g><path d="M 6.546875 -11.765625 C 8.316406 -11.765625 9.707031 -11.222656 10.71875 -10.140625 C 11.738281 -9.054688 12.25 -7.597656 12.25 -5.765625 C 12.25 -3.953125 11.738281 -2.5 10.71875 -1.40625 C 9.707031 -0.3125 8.316406 0.234375 6.546875 0.234375 C 4.785156 0.234375 3.394531 -0.3125 2.375 -1.40625 C 1.363281 -2.5 0.859375 -3.953125 0.859375 -5.765625 C 0.859375 -7.597656 1.363281 -9.054688 2.375 -10.140625 C 3.382812 -11.222656 4.773438 -11.765625 6.546875 -11.765625 Z M 4.140625 -2.609375 C 4.722656 -1.859375 5.523438 -1.484375 6.546875 -1.484375 C 7.578125 -1.484375 8.378906 -1.863281 8.953125 -2.625 C 9.535156 -3.382812 9.828125 -4.429688 9.828125 -5.765625 C 9.828125 -7.117188 9.535156 -8.171875 8.953125 -8.921875 C 8.378906 -9.671875 7.578125 -10.046875 6.546875 -10.046875 C 5.515625 -10.046875 4.707031 -9.671875 4.125 -8.921875 C 3.550781 -8.171875 3.265625 -7.117188 3.265625 -5.765625 C 3.265625 -4.421875 3.554688 -3.367188 4.140625 -2.609375 Z M 4.140625 -2.609375 "/></g></g></g><g fill="#f5eadc" fill-opacity="1"><g transform="translate(77.338664, 27.47415)"><g><path d="M 3.796875 -9.734375 L 3.796875 -6.6875 L 9.0625 -6.6875 L 9.0625 -4.859375 L 3.796875 -4.859375 L 3.796875 0 L 1.484375 0 L 1.484375 -11.53125 L 9.640625 -11.53125 L 9.640625 -9.734375 Z M 3.796875 -9.734375 "/></g></g></g><g fill="#f5eadc" fill-opacity="1"><g transform="translate(88.124517, 27.47415)"><g/></g></g><g fill="#f5eadc" fill-opacity="1"><g transform="translate(92.238319, 27.47415)"><g><path d="M 6.765625 -5.890625 L 11.421875 -5.890625 L 11.421875 0 L 9.5625 0 L 9.40625 -1.875 L 8.890625 -0.703125 C 8.253906 -0.078125 7.316406 0.234375 6.078125 0.234375 C 4.472656 0.234375 3.203125 -0.296875 2.265625 -1.359375 C 1.328125 -2.421875 0.859375 -3.867188 0.859375 -5.703125 C 0.859375 -7.546875 1.390625 -9.015625 2.453125 -10.109375 C 3.523438 -11.210938 4.882812 -11.765625 6.53125 -11.765625 C 8.039062 -11.765625 9.21875 -11.398438 10.0625 -10.671875 C 10.90625 -9.941406 11.390625 -8.984375 11.515625 -7.796875 L 11.53125 -7.625 L 9.234375 -7.625 L 9.203125 -7.796875 C 8.898438 -9.296875 8 -10.046875 6.5 -10.046875 C 5.550781 -10.046875 4.78125 -9.664062 4.1875 -8.90625 C 3.59375 -8.15625 3.296875 -7.128906 3.296875 -5.828125 C 3.296875 -4.441406 3.582031 -3.367188 4.15625 -2.609375 C 4.738281 -1.859375 5.5 -1.484375 6.4375 -1.484375 C 7.1875 -1.484375 7.804688 -1.710938 8.296875 -2.171875 C 8.796875 -2.628906 9.101562 -3.265625 9.21875 -4.078125 L 6.765625 -4.078125 Z M 6.765625 -5.890625 "/></g></g></g><g fill="#f5eadc" fill-opacity="1"><g transform="translate(105.432133, 27.47415)"><g><path d="M 10.84375 -11.53125 L 10.84375 -4.703125 C 10.84375 -4.148438 10.832031 -3.695312 10.8125 -3.34375 C 10.738281 -2.289062 10.3125 -1.429688 9.53125 -0.765625 C 8.757812 -0.0976562 7.617188 0.234375 6.109375 0.234375 C 4.578125 0.234375 3.421875 -0.0976562 2.640625 -0.765625 C 1.867188 -1.429688 1.445312 -2.289062 1.375 -3.34375 C 1.351562 -3.695312 1.34375 -4.148438 1.34375 -4.703125 L 1.34375 -11.53125 L 3.625 -11.53125 L 3.625 -4.46875 C 3.625 -4.070312 3.632812 -3.789062 3.65625 -3.625 C 3.71875 -2.945312 3.953125 -2.421875 4.359375 -2.046875 C 4.765625 -1.671875 5.347656 -1.484375 6.109375 -1.484375 C 6.847656 -1.484375 7.421875 -1.671875 7.828125 -2.046875 C 8.234375 -2.421875 8.46875 -2.945312 8.53125 -3.625 C 8.550781 -3.789062 8.5625 -4.070312 8.5625 -4.46875 L 8.5625 -11.53125 Z M 10.84375 -11.53125 "/></g></g></g><g fill="#f5eadc" fill-opacity="1"><g transform="translate(118.040679, 27.47415)"><g><path d="M 9.8125 -1.921875 L 9.8125 0 L 1.484375 0 L 1.484375 -11.53125 L 3.796875 -11.53125 L 3.796875 -1.921875 Z M 9.8125 -1.921875 "/></g></g></g><g fill="#f5eadc" fill-opacity="1"><g transform="translate(129.010482, 27.47415)"><g><path d="M 3.796875 -9.734375 L 3.796875 -6.6875 L 9.0625 -6.6875 L 9.0625 -4.859375 L 3.796875 -4.859375 L 3.796875 0 L 1.484375 0 L 1.484375 -11.53125 L 9.640625 -11.53125 L 9.640625 -9.734375 Z M 3.796875 -9.734375 "/></g></g></g><g fill="#f5eadc" fill-opacity="1"><g transform="translate(139.796336, 27.47415)"><g><path d="M 7.15625 -11.453125 C 8.082031 -11.347656 8.832031 -10.992188 9.40625 -10.390625 C 9.976562 -9.785156 10.265625 -8.96875 10.265625 -7.9375 C 10.265625 -6.925781 9.96875 -6.113281 9.375 -5.5 C 8.789062 -4.894531 8.050781 -4.539062 7.15625 -4.4375 C 6.675781 -4.375 6.117188 -4.34375 5.484375 -4.34375 L 3.796875 -4.34375 L 3.796875 0 L 1.484375 0 L 1.484375 -11.53125 L 5.484375 -11.53125 C 6.128906 -11.53125 6.6875 -11.503906 7.15625 -11.453125 Z M 6.46875 -6.21875 C 7.382812 -6.351562 7.84375 -6.925781 7.84375 -7.9375 C 7.84375 -8.957031 7.382812 -9.53125 6.46875 -9.65625 C 6.207031 -9.695312 5.867188 -9.71875 5.453125 -9.71875 L 3.796875 -9.71875 L 3.796875 -6.171875 L 5.453125 -6.171875 C 5.867188 -6.171875 6.207031 -6.1875 6.46875 -6.21875 Z M 6.46875 -6.21875 "/></g></g></g><g fill="#f5eadc" fill-opacity="1"><g transform="translate(151.083857, 27.47415)"><g><path d="M 6.546875 -11.765625 C 8.316406 -11.765625 9.707031 -11.222656 10.71875 -10.140625 C 11.738281 -9.054688 12.25 -7.597656 12.25 -5.765625 C 12.25 -3.953125 11.738281 -2.5 10.71875 -1.40625 C 9.707031 -0.3125 8.316406 0.234375 6.546875 0.234375 C 4.785156 0.234375 3.394531 -0.3125 2.375 -1.40625 C 1.363281 -2.5 0.859375 -3.953125 0.859375 -5.765625 C 0.859375 -7.597656 1.363281 -9.054688 2.375 -10.140625 C 3.382812 -11.222656 4.773438 -11.765625 6.546875 -11.765625 Z M 4.140625 -2.609375 C 4.722656 -1.859375 5.523438 -1.484375 6.546875 -1.484375 C 7.578125 -1.484375 8.378906 -1.863281 8.953125 -2.625 C 9.535156 -3.382812 9.828125 -4.429688 9.828125 -5.765625 C 9.828125 -7.117188 9.535156 -8.171875 8.953125 -8.921875 C 8.378906 -9.671875 7.578125 -10.046875 6.546875 -10.046875 C 5.515625 -10.046875 4.707031 -9.671875 4.125 -8.921875 C 3.550781 -8.171875 3.265625 -7.117188 3.265625 -5.765625 C 3.265625 -4.421875 3.554688 -3.367188 4.140625 -2.609375 Z M 4.140625 -2.609375 "/></g></g></g><g fill="#f5eadc" fill-opacity="1"><g transform="translate(164.745885, 27.47415)"><g><path d="M 9.84375 -2.90625 C 9.988281 -1.539062 10.269531 -0.570312 10.6875 0 L 8.15625 0 C 7.875 -0.769531 7.6875 -1.628906 7.59375 -2.578125 C 7.4375 -3.878906 6.914062 -4.5625 6.03125 -4.625 C 5.820312 -4.632812 5.519531 -4.640625 5.125 -4.640625 L 3.796875 -4.640625 L 3.796875 0 L 1.484375 0 L 1.484375 -11.53125 L 5.703125 -11.53125 C 6.335938 -11.53125 6.894531 -11.503906 7.375 -11.453125 C 8.289062 -11.335938 9.023438 -11.03125 9.578125 -10.53125 C 10.128906 -10.039062 10.40625 -9.328125 10.40625 -8.390625 C 10.40625 -7.671875 10.203125 -7.070312 9.796875 -6.59375 C 9.398438 -6.125 8.847656 -5.785156 8.140625 -5.578125 C 9.128906 -5.203125 9.695312 -4.3125 9.84375 -2.90625 Z M 3.796875 -6.375 L 5.390625 -6.375 C 5.835938 -6.375 6.144531 -6.378906 6.3125 -6.390625 C 7.414062 -6.484375 7.96875 -7.035156 7.96875 -8.046875 C 7.96875 -8.566406 7.835938 -8.953125 7.578125 -9.203125 C 7.316406 -9.453125 6.941406 -9.613281 6.453125 -9.6875 C 6.179688 -9.71875 5.859375 -9.734375 5.484375 -9.734375 L 3.796875 -9.734375 Z M 3.796875 -6.375 "/></g></g></g><g fill="#f5eadc" fill-opacity="1"><g transform="translate(176.551778, 27.47415)"><g><path d="M 10.515625 -9.734375 L 6.609375 -9.734375 L 6.609375 0 L 4.296875 0 L 4.296875 -9.734375 L 0.390625 -9.734375 L 0.390625 -11.53125 L 10.515625 -11.53125 Z M 10.515625 -9.734375 "/></g></g></g></svg>